<svg width="1528" height="1591" viewBox="0 0 1528 1591" fill="none" xmlns="http://www.w3.org/2000/svg">
<path d="M763.886 1591C1185.77 1591 1527.77 1389.51 1527.77 1140.96C1527.77 892.417 1185.77 690.929 763.886 690.929C342.003 690.929 0 892.417 0 1140.96C0 1389.51 342.003 1591 763.886 1591Z" fill="#F5F5F5"/>
<path d="M865.067 1121.65L666.851 1007.25C656.379 1001.22 644.509 998.048 632.428 998.048C620.346 998.048 608.476 1001.22 598.005 1007.25L477.37 1076.61L314.673 982.687C304.202 976.661 292.332 973.49 280.25 973.49C268.168 973.49 256.298 976.661 245.827 982.687L90.4946 1069.45C87.5042 1071.16 85.0223 1073.64 83.3019 1076.63C81.5815 1079.61 80.6843 1083 80.7017 1086.45C80.7191 1089.9 81.6505 1093.28 83.401 1096.25C85.1514 1099.22 87.6583 1101.67 90.6658 1103.36L262.576 1200.05L193.661 1239.68C190.671 1241.39 188.186 1243.85 186.457 1246.83C184.728 1249.81 183.818 1253.19 183.818 1256.63C183.818 1260.08 184.728 1263.46 186.457 1266.44C188.186 1269.41 190.671 1271.88 193.661 1273.59L395.747 1387.27C406.183 1393.15 417.97 1396.2 429.946 1396.14C441.923 1396.07 453.676 1392.89 464.046 1386.89L864.793 1155.42C867.765 1153.73 870.24 1151.28 871.971 1148.33C873.701 1145.38 874.627 1142.03 874.655 1138.61C874.682 1135.19 873.811 1131.82 872.129 1128.85C870.446 1125.87 868.011 1123.39 865.067 1121.65V1121.65Z" fill="#E0E0E0"/>
<path d="M952.101 1385.83C1000.09 1385.83 1039 1363.37 1039 1335.65C1039 1307.94 1000.09 1285.47 952.101 1285.47C904.109 1285.47 865.204 1307.94 865.204 1335.65C865.204 1363.37 904.109 1385.83 952.101 1385.83Z" fill="#E0E0E0"/>
<path d="M1272.53 1290.75C1352.47 1290.75 1417.28 1253.33 1417.28 1207.17C1417.28 1161.02 1352.47 1123.6 1272.53 1123.6C1192.58 1123.6 1127.78 1161.02 1127.78 1207.17C1127.78 1253.33 1192.58 1290.75 1272.53 1290.75Z" fill="#E0E0E0"/>
<path d="M1122.74 1099.01L741.177 878.732L903.36 787.348L1284.93 1007.66L1122.74 1099.01Z" fill="#E0E0E0"/>
<path d="M356.636 434.588L349.409 431.06V135.398L356.636 138.926V434.588Z" fill="#E0E0E0"/>
<path d="M527.724 40.1432L356.636 138.926L349.409 135.398L520.497 36.6152L527.724 40.1432Z" fill="#E0E0E0"/>
<path d="M527.723 335.806L356.635 434.588V138.926L527.723 40.1432V335.806Z" fill="#F0F0F0"/>
<path d="M425.722 168.314C425.722 168.314 431.888 186.536 448.466 176.021C460.248 168.519 459.221 152.592 459.221 152.592L488.403 144.68V281.105C488.403 281.105 478.47 315.083 400.821 329.983V193.146L425.722 168.314Z" fill="white"/>
<path d="M395.478 197.599V248.977L371.673 264.527C371.673 264.527 371.604 220.89 395.478 197.599Z" fill="white"/>
<path d="M494.295 144.508V200.647L513.853 188.865C513.853 188.865 513.853 153.414 494.295 144.508Z" fill="white"/>
<path d="M157.529 293.265L150.302 289.737V251.751L157.529 255.245V293.265Z" fill="#E0E0E0"/>
<path d="M328.617 156.463L157.529 255.245L150.302 251.751L321.39 152.935L328.617 156.463Z" fill="#E0E0E0"/>
<path d="M328.619 194.482L157.531 293.265V255.245L328.619 156.463V194.482Z" fill="#F0F0F0"/>
<path d="M157.529 493.056L150.302 489.528V327.277L157.529 330.771V493.056Z" fill="#E0E0E0"/>
<path d="M328.617 231.988L157.529 330.77L150.302 327.276L321.39 228.46L328.617 231.988Z" fill="#E0E0E0"/>
<path d="M328.619 394.273L157.531 493.056V330.77L328.619 231.988V394.273Z" fill="#F0F0F0"/>
<path d="M273.745 309.911C253.947 321.351 237.883 349.198 237.883 372.044C237.883 394.89 253.947 404.207 273.745 392.595C293.542 380.984 309.641 353.343 309.641 330.462C309.641 307.582 293.577 298.471 273.745 309.911ZM273.745 366.632C266.449 370.845 260.524 367.42 260.524 358.994C260.78 354.416 262.11 349.962 264.407 345.993C266.704 342.024 269.903 338.651 273.745 336.148C281.075 331.935 287 335.326 287 343.786C286.74 348.368 285.405 352.824 283.102 356.793C280.799 360.762 277.593 364.133 273.745 366.632V366.632Z" fill="white"/>
<path d="M194.76 417.496C184.484 423.353 176.503 418.661 176.503 407.221L181.059 404.617C181.059 413.215 187.121 416.708 194.76 412.393C201.118 408.295 205.712 401.965 207.638 394.65L213.427 372.832C218.633 353.137 232.471 333.921 247.85 324.879L276.211 308.507V313.781L247.85 330.12C234.389 337.895 222.264 354.712 217.708 371.975L211.92 393.794C209.349 403.555 203.23 412.006 194.76 417.496V417.496Z" fill="white"/>
<path d="M916.924 40.7256V460.688L1228.72 641.264V218.972L916.924 40.7256Z" fill="#E0E0E0"/>
<path d="M793.855 895.995V71.0727L916.922 0V824.922L793.855 895.995Z" fill="#E6E6E6"/>
<path d="M1120.55 705.52L807.829 524.945L915.962 460.688L1228.72 641.264L1120.55 705.52Z" fill="#E0E0E0"/>
<path d="M1074.93 656.609L865.99 535.973C863.586 534.584 861.59 532.587 860.203 530.182C858.815 527.777 858.084 525.049 858.084 522.273C858.084 519.496 858.815 516.768 860.203 514.364C861.59 511.959 863.586 509.961 865.99 508.572L913.395 481.17C917.581 478.734 922.338 477.45 927.181 477.45C932.025 477.45 936.782 478.734 940.968 481.17L1157.78 606.361C1159.98 607.625 1161.81 609.446 1163.08 611.641C1164.35 613.836 1165.02 616.327 1165.02 618.863C1165.02 621.399 1164.35 623.89 1163.08 626.085C1161.81 628.28 1159.98 630.101 1157.78 631.365L1114.11 656.609C1108.16 660.054 1101.4 661.869 1094.52 661.869C1087.64 661.869 1080.88 660.054 1074.93 656.609V656.609Z" fill="#D4F1F3"/>
<path opacity="0.5" d="M1074.93 656.609L865.99 535.973C863.586 534.584 861.59 532.587 860.203 530.182C858.815 527.777 858.084 525.049 858.084 522.273C858.084 519.496 858.815 516.768 860.203 514.364C861.59 511.959 863.586 509.961 865.99 508.572L913.395 481.17C917.581 478.734 922.338 477.45 927.181 477.45C932.025 477.45 936.782 478.734 940.968 481.17L1157.78 606.361C1159.98 607.625 1161.81 609.446 1163.08 611.641C1164.35 613.836 1165.02 616.327 1165.02 618.863C1165.02 621.399 1164.35 623.89 1163.08 626.085C1161.81 628.28 1159.98 630.101 1157.78 631.365L1114.11 656.609C1108.16 660.054 1101.4 661.869 1094.52 661.869C1087.64 661.869 1080.88 660.054 1074.93 656.609V656.609Z" fill="white"/>
<path d="M1074.93 628.865L865.99 508.23C863.586 506.841 861.59 504.843 860.203 502.438C858.815 500.033 858.084 497.306 858.084 494.529C858.084 491.753 858.815 489.025 860.203 486.62C861.59 484.215 863.586 482.218 865.99 480.828L913.395 453.427C917.581 450.99 922.338 449.706 927.181 449.706C932.025 449.706 936.782 450.99 940.968 453.427L1157.78 578.652C1159.97 579.918 1161.79 581.738 1163.06 583.929C1164.32 586.121 1164.99 588.606 1164.99 591.137C1164.99 593.667 1164.32 596.152 1163.06 598.344C1161.79 600.535 1159.97 602.355 1157.78 603.621L1114.11 628.865C1108.16 632.311 1101.4 634.125 1094.52 634.125C1087.64 634.125 1080.88 632.311 1074.93 628.865V628.865Z" fill="#D4F1F3"/>
<path opacity="0.2" d="M1074.93 628.865L865.99 508.23C863.586 506.841 861.59 504.843 860.203 502.438C858.815 500.033 858.084 497.306 858.084 494.529C858.084 491.753 858.815 489.025 860.203 486.62C861.59 484.215 863.586 482.218 865.99 480.828L913.395 453.427C917.581 450.99 922.338 449.706 927.181 449.706C932.025 449.706 936.782 450.99 940.968 453.427L1157.78 578.652C1159.97 579.918 1161.79 581.738 1163.06 583.929C1164.32 586.121 1164.99 588.606 1164.99 591.137C1164.99 593.667 1164.32 596.152 1163.06 598.344C1161.79 600.535 1159.97 602.355 1157.78 603.621L1114.11 628.865C1108.16 632.311 1101.4 634.125 1094.52 634.125C1087.64 634.125 1080.88 632.311 1074.93 628.865V628.865Z" fill="white"/>
<path d="M1074.93 601.121L865.99 480.52C863.595 479.124 861.608 477.124 860.226 474.72C858.845 472.316 858.118 469.592 858.118 466.819C858.118 464.047 858.845 461.322 860.226 458.918C861.608 456.514 863.595 454.515 865.99 453.118L913.395 425.717C917.581 423.28 922.338 421.996 927.181 421.996C932.025 421.996 936.782 423.28 940.968 425.717L1157.78 550.907C1159.98 552.171 1161.81 553.992 1163.08 556.187C1164.35 558.382 1165.02 560.874 1165.02 563.409C1165.02 565.945 1164.35 568.436 1163.08 570.631C1161.81 572.826 1159.98 574.648 1157.78 575.911L1114.11 601.121C1108.16 604.567 1101.4 606.381 1094.52 606.381C1087.64 606.381 1080.88 604.567 1074.93 601.121V601.121Z" fill="#D4F1F3"/>
<path d="M1074.93 573.377L865.99 452.776C863.595 451.38 861.608 449.38 860.226 446.976C858.845 444.572 858.118 441.848 858.118 439.075C858.118 436.302 858.845 433.578 860.226 431.174C861.608 428.77 863.595 426.771 865.99 425.374L913.395 397.973C917.591 395.566 922.344 394.3 927.181 394.3C932.019 394.3 936.772 395.566 940.968 397.973L1157.78 523.163C1159.98 524.427 1161.81 526.248 1163.08 528.443C1164.35 530.638 1165.02 533.129 1165.02 535.665C1165.02 538.201 1164.35 540.692 1163.08 542.887C1161.81 545.082 1159.98 546.904 1157.78 548.167L1114.11 573.377C1108.16 576.823 1101.4 578.637 1094.52 578.637C1087.64 578.637 1080.88 576.823 1074.93 573.377V573.377Z" fill="#D4F1F3"/>
<path opacity="0.3" d="M1074.93 573.377L865.99 452.776C863.595 451.38 861.608 449.38 860.226 446.976C858.845 444.572 858.118 441.848 858.118 439.075C858.118 436.302 858.845 433.578 860.226 431.174C861.608 428.77 863.595 426.771 865.99 425.374L913.395 397.973C917.591 395.566 922.344 394.3 927.181 394.3C932.019 394.3 936.772 395.566 940.968 397.973L1157.78 523.163C1159.98 524.427 1161.81 526.248 1163.08 528.443C1164.35 530.638 1165.02 533.129 1165.02 535.665C1165.02 538.201 1164.35 540.692 1163.08 542.887C1161.81 545.082 1159.98 546.904 1157.78 548.167L1114.11 573.377C1108.16 576.823 1101.4 578.637 1094.52 578.637C1087.64 578.637 1080.88 576.823 1074.93 573.377V573.377Z" fill="black"/>
<path d="M1074.93 545.633L865.99 425.032C863.595 423.635 861.608 421.636 860.226 419.232C858.845 416.828 858.118 414.103 858.118 411.331C858.118 408.558 858.845 405.834 860.226 403.43C861.608 401.026 863.595 399.026 865.99 397.63L913.395 370.229C917.591 367.822 922.344 366.556 927.181 366.556C932.019 366.556 936.772 367.822 940.968 370.229L1157.78 495.419C1159.98 496.683 1161.81 498.504 1163.08 500.699C1164.35 502.894 1165.02 505.385 1165.02 507.921C1165.02 510.457 1164.35 512.948 1163.08 515.143C1161.81 517.338 1159.98 519.159 1157.78 520.423L1114.11 545.633C1108.16 549.078 1101.4 550.893 1094.52 550.893C1087.64 550.893 1080.88 549.078 1074.93 545.633Z" fill="#D4F1F3"/>
<path opacity="0.5" d="M1074.93 545.633L865.99 425.032C863.595 423.635 861.608 421.636 860.226 419.232C858.845 416.828 858.118 414.103 858.118 411.331C858.118 408.558 858.845 405.834 860.226 403.43C861.608 401.026 863.595 399.026 865.99 397.63L913.395 370.229C917.591 367.822 922.344 366.556 927.181 366.556C932.019 366.556 936.772 367.822 940.968 370.229L1157.78 495.419C1159.98 496.683 1161.81 498.504 1163.08 500.699C1164.35 502.894 1165.02 505.385 1165.02 507.921C1165.02 510.457 1164.35 512.948 1163.08 515.143C1161.81 517.338 1159.98 519.159 1157.78 520.423L1114.11 545.633C1108.16 549.078 1101.4 550.893 1094.52 550.893C1087.64 550.893 1080.88 549.078 1074.93 545.633Z" fill="black"/>
<path d="M1120.55 482.507L807.829 301.931L915.962 237.674L1228.72 418.25L1120.55 482.507Z" fill="#E0E0E0"/>
<path d="M1028.65 265.761C1023.32 268.414 1017.44 269.766 1011.49 269.707C1005.53 269.647 999.678 268.178 994.402 265.418C985.051 259.835 985.257 250.93 994.881 245.518C1000.22 242.88 1006.1 241.537 1012.05 241.597C1018 241.656 1023.85 243.117 1029.13 245.86C1038.48 251.443 1038.28 260.349 1028.65 265.761Z" fill="#D4F1F3"/>
<g opacity="0.2">
<path opacity="0.2" d="M1028.65 265.761C1023.32 268.414 1017.44 269.766 1011.49 269.707C1005.53 269.647 999.678 268.178 994.402 265.418C985.051 259.835 985.257 250.93 994.881 245.518C1000.22 242.88 1006.1 241.537 1012.05 241.597C1018 241.656 1023.85 243.117 1029.13 245.86C1038.48 251.443 1038.28 260.349 1028.65 265.761Z" fill="black"/>
</g>
<path d="M1018.92 256.273V249.833C1018.87 249.179 1018.64 248.552 1018.26 248.017C1017.88 247.481 1017.36 247.056 1016.77 246.785C1015.14 245.958 1013.35 245.527 1011.52 245.527C1009.7 245.527 1007.91 245.958 1006.28 246.785C1005.69 247.05 1005.18 247.469 1004.8 247.999C1004.42 248.529 1004.19 249.15 1004.13 249.799V256.273H1018.92Z" fill="#E0E0E0"/>
<path d="M1019.68 255.108C1017.16 256.392 1014.38 257.061 1011.56 257.061C1008.74 257.061 1005.95 256.392 1003.44 255.108C1002.56 254.681 1001.8 254.035 1001.24 253.232C1000.67 252.428 1000.32 251.494 1000.22 250.518V254.834C1000.32 255.856 1000.69 256.833 1001.29 257.664C1001.89 258.495 1002.71 259.15 1003.65 259.561C1006.16 260.845 1008.94 261.514 1011.76 261.514C1014.59 261.514 1017.37 260.845 1019.88 259.561C1020.72 259.196 1021.46 258.646 1022.06 257.951C1022.65 257.257 1023.08 256.437 1023.31 255.553C1023.32 255.337 1023.32 255.119 1023.31 254.903V250.518C1023.18 251.543 1022.78 252.514 1022.14 253.323C1021.5 254.133 1020.65 254.751 1019.68 255.108Z" fill="#E0E0E0"/>
<path d="M1019.61 245.723C1017.1 244.44 1014.32 243.77 1011.51 243.77C1008.69 243.77 1005.91 244.44 1003.41 245.723C998.92 248.326 998.954 252.574 1003.41 255.108C1005.92 256.392 1008.7 257.061 1011.52 257.061C1014.35 257.061 1017.13 256.392 1019.64 255.108C1024.2 252.539 1024.2 248.326 1019.61 245.723ZM1016.63 253.361C1015.04 254.173 1013.28 254.597 1011.49 254.597C1009.7 254.597 1007.94 254.173 1006.35 253.361C1005.74 253.149 1005.21 252.752 1004.83 252.224C1004.46 251.696 1004.25 251.064 1004.25 250.416C1004.25 249.768 1004.46 249.135 1004.83 248.607C1005.21 248.08 1005.74 247.682 1006.35 247.47C1007.94 246.653 1009.7 246.226 1011.49 246.226C1013.28 246.226 1015.04 246.653 1016.63 247.47C1017.24 247.682 1017.77 248.08 1018.15 248.607C1018.52 249.135 1018.73 249.768 1018.73 250.416C1018.73 251.064 1018.52 251.696 1018.15 252.224C1017.77 252.752 1017.24 253.149 1016.63 253.361V253.361Z" fill="#FAFAFA"/>
<path d="M1085.85 298.882C1080.52 301.52 1074.64 302.863 1068.69 302.803C1062.73 302.744 1056.88 301.283 1051.6 298.54C1042.25 292.957 1042.49 284.051 1052.08 278.674C1057.41 276.02 1063.29 274.668 1069.25 274.727C1075.2 274.787 1081.06 276.257 1086.33 279.016C1095.58 284.77 1095.34 293.47 1085.85 298.882Z" fill="#D4F1F3"/>
<g opacity="0.7">
<path opacity="0.7" d="M1085.85 298.882C1080.52 301.52 1074.63 302.863 1068.68 302.803C1062.73 302.744 1056.88 301.283 1051.6 298.54C1042.25 292.957 1042.49 284.051 1052.08 278.674C1057.41 276.02 1063.29 274.668 1069.25 274.727C1075.2 274.787 1081.05 276.257 1086.33 279.016C1095.58 284.77 1095.34 293.47 1085.85 298.882Z" fill="black"/>
</g>
<path d="M1075.99 289.394V282.955C1075.92 282.3 1075.68 281.675 1075.3 281.141C1074.91 280.607 1074.39 280.181 1073.8 279.906C1072.17 279.087 1070.38 278.661 1068.56 278.661C1066.74 278.661 1064.94 279.087 1063.32 279.906C1062.72 280.18 1062.21 280.606 1061.83 281.141C1061.45 281.677 1061.22 282.302 1061.16 282.955V289.394H1075.99Z" fill="#E0E0E0"/>
<path d="M1076.74 288.196C1074.22 289.463 1071.44 290.124 1068.62 290.124C1065.8 290.124 1063.02 289.463 1060.51 288.196C1059.56 287.785 1058.75 287.13 1058.15 286.299C1057.55 285.468 1057.18 284.49 1057.08 283.469V287.784C1057.18 288.806 1057.55 289.783 1058.15 290.614C1058.75 291.446 1059.56 292.1 1060.51 292.511C1063.02 293.779 1065.8 294.44 1068.62 294.44C1071.44 294.44 1074.22 293.779 1076.74 292.511C1077.58 292.139 1078.32 291.582 1078.92 290.882C1079.51 290.182 1079.94 289.357 1080.17 288.47C1080.18 288.253 1080.18 288.035 1080.17 287.819V283.503C1080.07 284.521 1079.7 285.494 1079.1 286.32C1078.5 287.146 1077.68 287.794 1076.74 288.196V288.196Z" fill="#E0E0E0"/>
<path d="M1076.67 278.845C1074.16 277.569 1071.39 276.904 1068.57 276.904C1065.76 276.904 1062.98 277.569 1060.47 278.845C1055.99 281.448 1056.02 285.695 1060.47 288.264C1062.99 289.532 1065.77 290.192 1068.59 290.192C1071.41 290.192 1074.19 289.532 1076.71 288.264C1081.2 285.661 1081.16 281.345 1076.67 278.845ZM1073.69 286.483C1072.11 287.311 1070.35 287.744 1068.56 287.744C1066.77 287.744 1065 287.311 1063.42 286.483C1062.8 286.28 1062.26 285.888 1061.88 285.362C1061.5 284.836 1061.3 284.203 1061.3 283.554C1061.3 282.905 1061.5 282.272 1061.88 281.747C1062.26 281.221 1062.8 280.828 1063.42 280.626C1065.01 279.8 1066.77 279.369 1068.56 279.369C1070.34 279.369 1072.11 279.8 1073.69 280.626C1076.47 282.236 1076.5 284.77 1073.69 286.483Z" fill="#FAFAFA"/>
<path d="M1158.19 407.597L1150.11 321.18C1149.77 319.234 1148.98 317.397 1147.79 315.824C1146.59 314.25 1145.04 312.986 1143.26 312.137C1137.98 309.378 1132.13 307.908 1126.17 307.849C1120.22 307.789 1114.34 309.141 1109.01 311.795C1107.13 312.631 1105.49 313.909 1104.22 315.52C1102.95 317.13 1102.09 319.026 1101.71 321.043L1093.15 407.392V407.803C1093.11 408.133 1093.11 408.466 1093.15 408.796C1093.13 409.081 1093.13 409.367 1093.15 409.652C1093.15 409.995 1093.15 410.337 1093.32 410.68C1093.36 410.957 1093.42 411.232 1093.49 411.502C1093.49 411.845 1093.73 412.187 1093.83 412.53C1093.93 412.809 1094.05 413.084 1094.18 413.352C1094.33 413.693 1094.5 414.025 1094.69 414.345C1094.86 414.619 1095 414.893 1095.17 415.133C1095.34 415.372 1095.65 415.818 1095.89 416.16L1096.47 416.88C1096.77 417.239 1097.09 417.582 1097.43 417.907L1098.08 418.558L1099.35 419.62L1100.03 420.168C1100.76 420.713 1101.51 421.216 1102.29 421.675C1109.39 425.383 1117.27 427.356 1125.27 427.433C1133.28 427.511 1141.19 425.69 1148.36 422.12C1149.12 421.709 1149.84 421.264 1150.49 420.819H1150.69C1151.34 420.373 1151.92 419.928 1152.47 419.483L1152.71 419.277L1154.19 417.873L1154.39 417.633C1154.82 417.179 1155.22 416.699 1155.59 416.194L1155.76 415.955C1156.12 415.481 1156.44 414.977 1156.72 414.448C1157 413.919 1157.24 413.37 1157.44 412.804V412.804C1157.62 412.265 1157.77 411.716 1157.88 411.159C1157.88 411.102 1157.88 411.045 1157.88 410.988C1157.98 410.456 1158.03 409.918 1158.06 409.378V409.139C1158.23 408.385 1158.23 408.077 1158.19 407.597Z" fill="#D4F1F3"/>
<path d="M1142.81 332.003C1137.48 334.657 1131.6 336.009 1125.65 335.95C1119.69 335.89 1113.84 334.42 1108.56 331.661C1099.21 326.078 1099.45 317.172 1109.04 311.795C1114.37 309.141 1120.26 307.789 1126.21 307.849C1132.16 307.908 1138.02 309.378 1143.29 312.137C1152.64 317.72 1152.41 326.626 1142.81 332.003Z" fill="#D4F1F3"/>
<g opacity="0.5">
<path opacity="0.5" d="M1142.81 332.003C1137.48 334.657 1131.6 336.009 1125.64 335.95C1119.69 335.89 1113.84 334.42 1108.56 331.661C1099.21 326.078 1099.45 317.172 1109.04 311.795C1114.37 309.141 1120.25 307.789 1126.21 307.849C1132.16 307.908 1138.02 309.378 1143.29 312.137C1152.64 317.72 1152.4 326.626 1142.81 332.003Z" fill="white"/>
</g>
<path d="M1133.05 322.447V316.008C1133 315.345 1132.76 314.71 1132.38 314.168C1131.99 313.626 1131.47 313.197 1130.86 312.925C1129.27 312.134 1127.51 311.722 1125.72 311.722C1123.94 311.722 1122.18 312.134 1120.59 312.925C1119.99 313.194 1119.48 313.614 1119.09 314.142C1118.71 314.67 1118.47 315.29 1118.39 315.939V322.447H1133.05Z" fill="#E0E0E0"/>
<path d="M1133.81 321.385C1131.29 322.669 1128.51 323.339 1125.69 323.339C1122.87 323.339 1120.08 322.669 1117.57 321.385C1116.62 320.987 1115.8 320.336 1115.2 319.502C1114.59 318.668 1114.23 317.685 1114.15 316.659V320.974C1114.24 321.996 1114.61 322.973 1115.21 323.804C1115.82 324.636 1116.63 325.29 1117.57 325.701C1120.08 326.985 1122.87 327.654 1125.69 327.654C1128.51 327.654 1131.29 326.985 1133.81 325.701C1134.64 325.324 1135.38 324.766 1135.98 324.067C1136.57 323.368 1137 322.545 1137.23 321.659C1137.25 321.454 1137.25 321.248 1137.23 321.043V316.727C1137.13 317.739 1136.76 318.705 1136.16 319.524C1135.55 320.344 1134.74 320.986 1133.81 321.385V321.385Z" fill="#E0E0E0"/>
<path d="M1133.8 311.966C1131.29 310.698 1128.52 310.038 1125.7 310.038C1122.89 310.038 1120.12 310.698 1117.6 311.966C1113.15 314.569 1113.15 318.816 1117.6 321.385C1120.12 322.669 1122.9 323.339 1125.72 323.339C1128.54 323.339 1131.33 322.669 1133.84 321.385C1138.29 318.782 1138.26 314.569 1133.8 311.966ZM1130.82 319.604C1129.24 320.432 1127.48 320.865 1125.69 320.865C1123.9 320.865 1122.14 320.432 1120.55 319.604C1119.93 319.401 1119.4 319.009 1119.01 318.483C1118.63 317.957 1118.43 317.325 1118.43 316.676C1118.43 316.026 1118.63 315.394 1119.01 314.868C1119.4 314.342 1119.93 313.95 1120.55 313.747C1122.13 312.913 1123.9 312.477 1125.69 312.477C1127.48 312.477 1129.24 312.913 1130.82 313.747C1131.44 313.957 1131.97 314.355 1132.35 314.886C1132.72 315.416 1132.92 316.051 1132.91 316.7C1132.9 317.35 1132.69 317.98 1132.3 318.501C1131.92 319.023 1131.38 319.409 1130.76 319.604H1130.82Z" fill="#FAFAFA"/>
<path d="M1120.55 1084.62V259.698L1243.62 188.66V1013.55L1120.55 1084.62Z" fill="#E6E6E6"/>
<path d="M1120.55 259.698L793.855 71.0727L916.922 0L1243.62 188.659L1120.55 259.698Z" fill="#E0E0E0"/>
<path d="M1120.55 274.494V259.698L793.855 71.0724V895.995L1120.55 1084.62V705.52V497.44V482.472V274.494ZM1107.6 697.916L806.802 524.533V316.316L1107.6 489.973V697.916ZM1107.6 474.902L806.802 301.211V93.4731L1107.6 267.164V474.902Z" fill="#F0F0F0"/>
<path d="M811.154 554.812V877.328L1103.25 1045.98V723.468L811.154 554.812ZM818.004 566.8L945.421 640.339V946.893L818.073 873.355L818.004 566.8ZM1096.27 1034.03L952.409 950.901V644.415L1096.27 727.579V1034.03Z" fill="#E0E0E0"/>
<path d="M914.592 199.483C909.262 202.136 903.378 203.489 897.425 203.429C891.471 203.37 885.616 201.9 880.34 199.141C871.023 193.558 871.229 184.652 880.854 179.274C886.184 176.621 892.067 175.269 898.021 175.328C903.975 175.388 909.829 176.858 915.106 179.617C924.354 185.2 924.148 194.106 914.592 199.483Z" fill="#D4F1F3"/>
<g opacity="0.5">
<path opacity="0.5" d="M914.594 199.483C909.264 202.136 903.381 203.488 897.427 203.429C891.474 203.369 885.619 201.9 880.343 199.14C871.026 193.557 871.232 184.652 880.856 179.274C886.187 176.621 892.07 175.268 898.023 175.328C903.977 175.387 909.832 176.857 915.108 179.617C924.356 185.2 924.151 194.105 914.594 199.483Z" fill="white"/>
</g>
<path d="M904.796 189.995V183.59C904.738 182.928 904.505 182.292 904.119 181.751C903.734 181.209 903.211 180.779 902.604 180.507C900.987 179.681 899.197 179.25 897.381 179.25C895.564 179.25 893.774 179.681 892.157 180.507C891.562 180.773 891.048 181.192 890.669 181.722C890.29 182.251 890.059 182.873 889.999 183.522V189.961L904.796 189.995Z" fill="#E0E0E0"/>
<path d="M905.516 188.865C903.003 190.149 900.221 190.818 897.399 190.818C894.577 190.818 891.794 190.149 889.281 188.865C888.34 188.454 887.527 187.799 886.925 186.968C886.322 186.137 885.953 185.16 885.856 184.138V188.454C885.953 189.475 886.322 190.452 886.925 191.284C887.527 192.115 888.34 192.77 889.281 193.18C891.794 194.464 894.577 195.134 897.399 195.134C900.221 195.134 903.003 194.464 905.516 193.18C906.356 192.81 907.101 192.254 907.694 191.554C908.287 190.853 908.714 190.028 908.942 189.139C908.959 188.934 908.959 188.727 908.942 188.522V184.206C908.836 185.217 908.463 186.181 907.861 187C907.259 187.819 906.45 188.462 905.516 188.865Z" fill="#E0E0E0"/>
<path d="M905.48 179.446C902.962 178.178 900.182 177.517 897.362 177.517C894.543 177.517 891.763 178.178 889.245 179.446C884.792 182.049 884.792 186.296 889.245 188.865C891.758 190.149 894.54 190.818 897.362 190.818C900.185 190.818 902.967 190.149 905.48 188.865C910.001 186.262 909.967 182.015 905.48 179.446ZM902.466 187.084C900.882 187.918 899.118 188.354 897.328 188.354C895.538 188.354 893.774 187.918 892.19 187.084C891.574 186.881 891.037 186.489 890.656 185.963C890.275 185.437 890.07 184.804 890.07 184.155C890.07 183.506 890.275 182.873 890.656 182.348C891.037 181.822 891.574 181.429 892.19 181.227C893.779 180.407 895.54 179.979 897.328 179.979C899.116 179.979 900.877 180.407 902.466 181.227C903.067 181.446 903.586 181.844 903.952 182.368C904.319 182.892 904.516 183.516 904.516 184.155C904.516 184.795 904.319 185.419 903.952 185.943C903.586 186.466 903.067 186.865 902.466 187.084Z" fill="#FAFAFA"/>
<path d="M971.587 232.604C966.257 235.258 960.374 236.61 954.42 236.551C948.467 236.491 942.612 235.021 937.336 232.262C927.985 226.679 928.19 217.773 937.815 212.396C943.15 209.758 949.031 208.415 954.982 208.475C960.933 208.534 966.786 209.995 972.067 212.738C981.418 218.321 981.212 227.227 971.587 232.604Z" fill="#D4F1F3"/>
<path d="M961.861 223.117V216.712C961.805 216.053 961.571 215.422 961.185 214.886C960.8 214.349 960.276 213.927 959.669 213.663C958.052 212.837 956.262 212.406 954.446 212.406C952.63 212.406 950.84 212.837 949.222 213.663C948.627 213.929 948.114 214.348 947.734 214.878C947.355 215.407 947.124 216.029 947.065 216.678V223.117H961.861Z" fill="#E0E0E0"/>
<path d="M962.545 221.986C960.031 223.27 957.249 223.94 954.427 223.94C951.605 223.94 948.823 223.27 946.309 221.986C945.369 221.575 944.555 220.921 943.953 220.089C943.351 219.258 942.982 218.281 942.884 217.26V221.575C942.967 222.601 943.331 223.585 943.935 224.418C944.539 225.252 945.36 225.904 946.309 226.302C948.823 227.586 951.605 228.255 954.427 228.255C957.249 228.255 960.031 227.586 962.545 226.302C963.384 225.932 964.129 225.375 964.722 224.675C965.316 223.975 965.742 223.149 965.97 222.26C965.987 222.055 965.987 221.849 965.97 221.644V217.328C965.861 218.338 965.487 219.3 964.885 220.119C964.283 220.937 963.476 221.581 962.545 221.986Z" fill="#E0E0E0"/>
<path d="M962.545 212.602C960.032 211.318 957.25 210.648 954.428 210.648C951.605 210.648 948.823 211.318 946.31 212.602C941.857 215.171 941.891 219.452 946.31 221.987C948.823 223.271 951.605 223.94 954.428 223.94C957.25 223.94 960.032 223.271 962.545 221.987C967.066 219.384 967.032 215.171 962.545 212.602ZM959.565 220.24C957.974 221.052 956.214 221.475 954.428 221.475C952.641 221.475 950.881 221.052 949.29 220.24C948.677 220.028 948.146 219.63 947.77 219.102C947.394 218.574 947.192 217.942 947.192 217.294C947.192 216.646 947.394 216.014 947.77 215.486C948.146 214.958 948.677 214.56 949.29 214.349C950.878 213.529 952.64 213.101 954.428 213.101C956.215 213.101 957.977 213.529 959.565 214.349C960.178 214.56 960.709 214.958 961.085 215.486C961.461 216.014 961.663 216.646 961.663 217.294C961.663 217.942 961.461 218.574 961.085 219.102C960.709 219.63 960.178 220.028 959.565 220.24V220.24Z" fill="#FAFAFA"/>
<path d="M1354.05 1190.63H1350.35C1345.58 1182.49 1338.64 1175.83 1330.31 1171.41C1298.63 1153.12 1247.25 1153.12 1215.6 1171.41C1207.25 1175.82 1200.3 1182.48 1195.53 1190.63H1191.83V1204.54C1191.83 1216.52 1199.74 1228.51 1215.6 1237.66C1247.25 1255.95 1298.63 1255.95 1330.31 1237.66C1346.13 1228.51 1354.05 1216.52 1354.05 1204.54V1190.63Z" fill="#263238"/>
<path d="M1272.94 1237.45C1317.73 1237.45 1354.05 1216.49 1354.05 1190.63C1354.05 1164.77 1317.73 1143.81 1272.94 1143.81C1228.14 1143.81 1191.83 1164.77 1191.83 1190.63C1191.83 1216.49 1228.14 1237.45 1272.94 1237.45Z" fill="#37474F"/>
<path d="M1274.04 796.082H1271.71C1265.14 796.082 1259.82 801.403 1259.82 807.967V1180.97C1259.82 1187.53 1265.14 1192.86 1271.71 1192.86H1274.04C1280.6 1192.86 1285.92 1187.53 1285.92 1180.97V807.967C1285.92 801.403 1280.6 796.082 1274.04 796.082Z" fill="#455A64"/>
<path d="M1382.71 732.442C1396.42 765.29 1419.91 812.763 1407.31 873.834C1407.31 873.834 1382.24 919.663 1328.53 919.663C1274.82 919.663 1222.76 895.858 1186.79 865.1C1150.83 834.341 1148.71 827.423 1148.71 807.18C1148.47 780.858 1153.06 754.716 1162.24 730.044C1173.33 700.999 1193.3 663.424 1193.3 624.377C1193.3 611.362 1176.66 555.497 1176.66 555.497C1176.66 555.497 1152.68 539.638 1152.68 497.269C1152.68 470.312 1180.9 444.075 1188.64 421.709C1183.03 411.595 1180.54 400.046 1181.49 388.519C1182.01 382.816 1183.47 377.239 1185.8 372.009C1197.41 345.704 1226.7 345.533 1246.43 354.164C1266.16 362.796 1360.79 403.932 1360.79 403.932C1366.93 412.214 1374.65 419.199 1383.5 424.483C1398.16 433.252 1429.71 453.015 1440.39 470.347L1410.18 563.272C1410.18 563.272 1369.9 598.551 1366.72 624.446C1363.53 650.34 1368.98 699.594 1382.71 732.442Z" fill="#D4F1F3"/>
<path d="M1437.44 532.246C1452.44 503.138 1449.55 471.786 1430.98 462.221C1412.42 452.655 1385.21 468.498 1370.21 497.606C1355.21 526.714 1358.1 558.065 1376.67 567.631C1395.23 577.197 1422.44 561.354 1437.44 532.246Z" fill="#D4F1F3"/>
<path opacity="0.4" d="M1437.44 532.246C1452.44 503.138 1449.55 471.786 1430.98 462.221C1412.42 452.655 1385.21 468.498 1370.21 497.606C1355.21 526.714 1358.1 558.065 1376.67 567.631C1395.23 577.197 1422.44 561.354 1437.44 532.246Z" fill="black"/>
<path opacity="0.2" d="M1195.08 396.842C1194.26 405.445 1192.08 413.862 1188.61 421.777C1183 411.664 1180.51 400.115 1181.45 388.587L1195.08 396.842Z" fill="black"/>
<path opacity="0.2" d="M1366.72 624.446C1369.94 598.551 1410.12 563.409 1410.12 563.409C1398.61 570.67 1386.45 572.725 1376.69 567.69C1359.87 558.785 1355.9 532.068 1366.72 505.352C1366.72 505.352 1337.36 580.946 1287.46 589.269C1270.78 592.043 1254.2 582.419 1244.1 562.895C1244.1 562.895 1245.36 609.306 1294.55 609.306C1309.69 609.306 1329.83 594.133 1338.15 627.46C1346.48 660.787 1353.43 680.927 1362.47 755.254C1368.67 806.392 1366.34 874.587 1364.29 912.196C1382.12 903.993 1397.09 890.661 1407.31 873.902C1419.91 812.831 1396.42 765.358 1382.71 732.51C1369.01 699.663 1363.46 650.374 1366.72 624.446Z" fill="black"/>
<path opacity="0.2" d="M1176.66 555.565C1205.5 568.958 1220.43 545.701 1220.43 545.701C1159.43 557.209 1153.26 509.942 1152.65 499.427C1153.43 540.152 1176.66 555.565 1176.66 555.565Z" fill="black"/>
<path d="M1303.46 524.533L1307.81 519.498C1322.87 502.505 1336.2 484.055 1347.61 464.421C1366.79 432.498 1393.37 432.806 1393.64 432.772C1394.25 432.688 1394.8 432.368 1395.18 431.882L1390.97 429.21C1383.3 429.895 1361.34 434.382 1344.42 462.503C1333.15 481.967 1319.97 500.257 1305.07 517.1C1303.59 518.813 1302.15 520.525 1300.72 522.17L1297.84 525.595C1284.55 540.803 1259.82 569.095 1274.51 607.423C1278.52 618.406 1283.93 628.825 1290.61 638.42C1296.74 647.531 1300.1 652.532 1300.1 673.974C1300.1 687.435 1297.77 708.226 1294.82 734.703C1289.69 780.6 1282.7 843.384 1282.66 914.08L1286.3 914.936C1286.3 914.936 1286.3 914.696 1286.3 914.593C1286.3 843.863 1293.32 781.011 1298.42 735.114C1301.4 708.568 1303.73 687.64 1303.73 673.974C1303.73 651.402 1299.93 645.75 1293.45 636.297C1286.94 626.925 1281.66 616.747 1277.77 606.018C1263.96 569.745 1287.94 542.549 1300.54 527.958L1303.46 524.533Z" fill="#D4F1F3"/>
<path d="M1269.14 364.234C1262.29 376.325 1242.18 411.296 1230.98 427.703C1226.39 434.553 1221.7 440.924 1217.28 447.261C1208.24 459.934 1199.67 471.922 1193.58 482.677C1192.62 484.424 1191.42 486.308 1190.15 488.397C1181.97 501.413 1168.4 522.958 1176.45 555.291L1176.83 555.565C1176.83 555.565 1178.16 560.052 1180.08 566.732C1183 574.309 1186.64 581.591 1190.94 588.481C1222.18 639.448 1203.13 705.486 1193.95 737.237C1193.1 740.252 1192.31 742.957 1191.69 745.287C1184.02 773.476 1179.84 810.365 1178.95 858.044L1182.58 861.264C1183.37 812.523 1187.51 774.743 1195.25 746.246C1195.87 743.917 1196.66 741.245 1197.52 738.265C1206.83 706 1226.18 638.935 1194.09 586.563C1163.81 537.138 1182.24 507.784 1193.27 490.384C1194.64 488.226 1195.87 486.274 1196.86 484.527C1204.1 472.436 1211.94 460.718 1220.36 449.419C1224.92 443.082 1229.58 436.506 1234.06 429.792C1245.47 413.146 1265.88 377.524 1272.56 365.741L1269.14 364.234Z" fill="#D4F1F3"/>
<path opacity="0.2" d="M1303.46 524.533L1307.81 519.498C1322.87 502.505 1336.2 484.055 1347.61 464.421C1366.79 432.498 1393.37 432.806 1393.64 432.772C1394.25 432.688 1394.8 432.368 1395.18 431.882L1390.97 429.21C1383.3 429.895 1361.34 434.382 1344.42 462.503C1333.15 481.967 1319.97 500.257 1305.07 517.1C1303.59 518.813 1302.15 520.525 1300.72 522.17L1297.84 525.595C1284.55 540.803 1259.82 569.095 1274.51 607.423C1278.52 618.406 1283.93 628.825 1290.61 638.42C1296.74 647.531 1300.1 652.532 1300.1 673.974C1300.1 687.435 1297.77 708.226 1294.82 734.703C1289.69 780.6 1282.7 843.384 1282.66 914.08L1286.3 914.936C1286.3 914.936 1286.3 914.696 1286.3 914.593C1286.3 843.863 1293.32 781.011 1298.42 735.114C1301.4 708.568 1303.73 687.64 1303.73 673.974C1303.73 651.402 1299.93 645.75 1293.45 636.297C1286.94 626.925 1281.66 616.747 1277.77 606.018C1263.96 569.745 1287.94 542.549 1300.54 527.958L1303.46 524.533Z" fill="white"/>
<path opacity="0.2" d="M1269.14 364.234C1262.29 376.325 1242.18 411.296 1230.98 427.703C1226.39 434.553 1221.7 440.924 1217.28 447.261C1208.24 459.934 1199.67 471.922 1193.58 482.677C1192.62 484.424 1191.42 486.308 1190.15 488.397C1181.97 501.413 1168.4 522.958 1176.45 555.291L1176.83 555.565C1176.83 555.565 1178.16 560.052 1180.08 566.732C1183 574.309 1186.64 581.591 1190.94 588.481C1222.18 639.448 1203.13 705.486 1193.95 737.237C1193.1 740.252 1192.31 742.957 1191.69 745.287C1184.02 773.476 1179.84 810.365 1178.95 858.044L1182.58 861.264C1183.37 812.523 1187.51 774.743 1195.25 746.246C1195.87 743.917 1196.66 741.245 1197.52 738.265C1206.83 706 1226.18 638.935 1194.09 586.563C1163.81 537.138 1182.24 507.784 1193.27 490.384C1194.64 488.226 1195.87 486.274 1196.86 484.527C1204.1 472.436 1211.94 460.718 1220.36 449.419C1224.92 443.082 1229.58 436.506 1234.06 429.792C1245.47 413.146 1265.88 377.524 1272.56 365.741L1269.14 364.234Z" fill="white"/>
<path d="M1360.69 404.069V355.808H1265.54V404.035C1265.33 411.228 1269.92 418.455 1279.45 423.97C1298.05 434.69 1328.19 434.69 1346.79 423.97C1356.44 418.352 1360.9 411.262 1360.69 404.069Z" fill="#D4F1F3"/>
<path opacity="0.2" d="M1360.69 404.069V355.808H1265.54V404.035C1265.33 411.228 1269.92 418.455 1279.45 423.97C1298.05 434.69 1328.19 434.69 1346.79 423.97C1356.44 418.352 1360.9 411.262 1360.69 404.069Z" fill="black"/>
<path d="M1346.79 374.613C1328.19 385.333 1298.05 385.333 1279.45 374.613C1260.85 363.892 1260.85 346.458 1279.45 335.737C1298.05 325.016 1328.19 325.016 1346.79 335.737C1365.39 346.458 1365.35 363.857 1346.79 374.613Z" fill="#D4F1F3"/>
<path opacity="0.2" d="M1313.11 372.866C1332.48 372.866 1348.19 364.815 1348.19 354.883C1348.19 344.952 1332.48 336.901 1313.11 336.901C1293.74 336.901 1278.04 344.952 1278.04 354.883C1278.04 364.815 1293.74 372.866 1313.11 372.866Z" fill="white"/>
<path d="M338.103 950.592L378.006 1194.02C378.291 1195.8 379.199 1197.41 380.567 1198.58C381.935 1199.75 383.674 1200.39 385.473 1200.39C386.542 1200.39 387.599 1200.17 388.575 1199.73C389.552 1199.3 390.425 1198.66 391.14 1197.87C391.854 1197.07 392.393 1196.14 392.72 1195.12C393.048 1194.1 393.158 1193.03 393.043 1191.97L365.059 940.796L338.103 950.592Z" fill="#263238"/>
<path d="M495.217 862.908L535.12 1106.34C535.412 1108.11 536.327 1109.73 537.701 1110.9C539.075 1112.07 540.819 1112.71 542.621 1112.71V1112.71C543.689 1112.71 544.745 1112.49 545.719 1112.05C546.694 1111.62 547.566 1110.98 548.278 1110.18C548.99 1109.39 549.525 1108.45 549.849 1107.43C550.172 1106.42 550.277 1105.34 550.157 1104.28L522.173 853.112L495.217 862.908Z" fill="#263238"/>
<path d="M181.915 677.537L190.135 835.095C190.329 838.815 190.145 842.545 189.587 846.227L151.91 1098.42C151.772 1099.33 151.832 1100.26 152.085 1101.14C152.338 1102.02 152.779 1102.84 153.378 1103.54C153.976 1104.23 154.718 1104.79 155.553 1105.17C156.387 1105.56 157.295 1105.75 158.213 1105.75V1105.75C159.68 1105.75 161.103 1105.25 162.244 1104.33C163.385 1103.41 164.175 1102.12 164.481 1100.68L210.412 855.852C211.26 851.337 211.536 846.734 211.235 842.151L200.171 666.576L181.915 677.537Z" fill="#263238"/>
<path d="M314.539 605.984L322.759 763.543C322.937 767.263 322.754 770.991 322.211 774.675L284.363 1027.01C284.225 1027.92 284.285 1028.85 284.54 1029.74C284.795 1030.62 285.239 1031.45 285.84 1032.15C286.442 1032.84 287.188 1033.41 288.026 1033.79C288.865 1034.17 289.777 1034.37 290.699 1034.37V1034.37C292.188 1034.37 293.63 1033.85 294.775 1032.9C295.92 1031.95 296.695 1030.63 296.967 1029.17L342.899 784.3C343.744 779.785 344.032 775.184 343.755 770.599L332.658 595.024L314.539 605.984Z" fill="#263238"/>
<path d="M339.473 542.071C220.174 539.467 148.587 649.45 148.587 649.45V716.927C148.587 716.927 220.174 606.909 339.473 609.513L352.146 549.777L339.473 542.071Z" fill="#D4F1F3"/>
<path opacity="0.2" d="M339.473 542.071C220.174 539.467 148.587 649.45 148.587 649.45V716.927C148.587 716.927 220.174 606.909 339.473 609.513L352.146 549.777L339.473 542.071Z" fill="black"/>
<path d="M352.144 549.777C232.811 547.174 161.259 657.191 161.259 657.191V724.633C161.259 724.633 232.982 614.65 352.144 617.253V549.777Z" fill="#D4F1F3"/>
<path opacity="0.4" d="M352.144 549.777C232.811 547.174 161.259 657.191 161.259 657.191V724.633C161.259 724.633 232.982 614.65 352.144 617.253V549.777Z" fill="black"/>
<path d="M148.587 649.45L161.261 657.191V724.633L148.587 716.926V649.45Z" fill="#D4F1F3"/>
<path opacity="0.6" d="M148.587 649.45L161.261 657.191V724.633L148.587 716.926V649.45Z" fill="black"/>
<path d="M518.267 815.675L505.457 835.678L508.882 839.993C455.62 883.493 372.388 920.828 345.261 932.405C342.803 933.421 340.204 934.056 337.554 934.289C334.358 937.574 332.554 941.967 332.519 946.551C332.358 948.662 332.797 950.776 333.784 952.648C334.772 954.521 336.269 956.076 338.102 957.135C340.564 956.899 342.976 956.299 345.261 955.354C374.341 942.955 467.985 900.927 519.946 853.626C522.496 851.291 524.511 848.432 525.854 845.246C527.196 842.059 527.833 838.62 527.721 835.164C527.549 820.162 518.267 815.675 518.267 815.675Z" fill="#D4F1F3"/>
<path opacity="0.7" d="M518.267 815.675L505.457 835.678L508.882 839.993C455.62 883.493 372.388 920.828 345.261 932.405C342.803 933.421 340.204 934.056 337.554 934.289C334.358 937.574 332.554 941.967 332.519 946.551C332.358 948.662 332.797 950.776 333.784 952.648C334.772 954.521 336.269 956.076 338.102 957.135C340.564 956.899 342.976 956.299 345.261 955.354C374.341 942.955 467.985 900.927 519.946 853.626C522.496 851.291 524.511 848.432 525.854 845.246C527.196 842.059 527.833 838.62 527.721 835.164C527.549 820.162 518.267 815.675 518.267 815.675Z" fill="black"/>
<path d="M339.642 739.601C319.33 744.465 244.798 765.804 190.886 827.457C188.593 830.16 187.419 833.636 187.604 837.176C187.789 840.716 189.318 844.051 191.879 846.501C212.43 866.162 265.247 912.367 326.9 932.987C332.935 935.016 339.504 934.76 345.362 932.268C374.442 919.869 468.086 877.876 520.047 830.54C521.124 829.554 521.954 828.327 522.469 826.96C522.983 825.593 523.168 824.124 523.008 822.672C522.848 821.221 522.347 819.827 521.547 818.605C520.747 817.383 519.669 816.367 518.402 815.64C464.924 784.822 408.491 759.44 349.952 739.875C346.609 738.817 343.036 738.722 339.642 739.601V739.601Z" fill="#D4F1F3"/>
<path opacity="0.4" d="M339.642 739.601C319.33 744.465 244.798 765.804 190.886 827.457C188.593 830.16 187.419 833.636 187.604 837.176C187.789 840.716 189.318 844.051 191.879 846.501C212.43 866.162 265.247 912.367 326.9 932.987C332.935 935.016 339.504 934.76 345.362 932.268C374.442 919.869 468.086 877.876 520.047 830.54C521.124 829.554 521.954 828.327 522.469 826.96C522.983 825.593 523.168 824.124 523.008 822.672C522.848 821.221 522.347 819.827 521.547 818.605C520.747 817.383 519.669 816.367 518.402 815.64C464.924 784.822 408.491 759.44 349.952 739.875C346.609 738.817 343.036 738.722 339.642 739.601V739.601Z" fill="black"/>
<path d="M332.519 946.551C332.554 941.967 334.358 937.574 337.554 934.288C333.927 934.672 330.26 934.275 326.799 933.124C265.146 912.573 212.364 866.298 191.778 846.638C189.192 844.168 187.657 840.798 187.491 837.226C187.325 833.654 188.542 830.155 190.888 827.457C185.851 833.716 182.947 841.42 182.599 849.446C182.718 853.249 183.602 856.989 185.196 860.443C186.791 863.897 189.064 866.995 191.881 869.552C212.432 889.213 265.248 935.419 326.902 956.073C330.544 957.261 334.405 957.623 338.205 957.134C336.353 956.089 334.835 954.54 333.828 952.666C332.822 950.793 332.368 948.672 332.519 946.551V946.551Z" fill="#D4F1F3"/>
<g opacity="0.6">
<path opacity="0.6" d="M332.519 946.551C332.554 941.967 334.358 937.574 337.554 934.288C333.927 934.672 330.26 934.275 326.799 933.124C265.146 912.573 212.364 866.298 191.778 846.638C189.192 844.168 187.657 840.798 187.491 837.226C187.325 833.654 188.542 830.155 190.888 827.457C185.851 833.716 182.947 841.42 182.599 849.446C182.718 853.249 183.602 856.989 185.196 860.443C186.791 863.897 189.064 866.995 191.881 869.552C212.432 889.213 265.248 935.419 326.902 956.073C330.544 957.261 334.405 957.623 338.205 957.134C336.353 956.089 334.835 954.54 333.828 952.666C332.822 950.793 332.368 948.672 332.519 946.551V946.551Z" fill="black"/>
</g>
<path d="M589.409 1055.92C581.668 1006.46 571.735 927.404 566.049 880.65C565.672 877.567 565.158 874.553 564.508 871.539C561.512 858.635 555.906 846.481 548.036 835.825C540.167 825.169 530.199 816.236 518.747 809.577L402.291 740.252L323.169 698.635C323.169 698.635 302.138 759.638 326.594 796.938C346.94 827.971 436.817 866.435 463.602 879.417C490.387 892.398 491.003 895.892 490.318 913.224C489.633 930.555 489.77 952.647 522.583 1021.84C532.003 1041.7 538.579 1056.57 543.135 1067.97C559.477 1069.29 575.784 1065.04 589.409 1055.92Z" fill="#D4F1F3"/>
<path d="M553.307 1100.2C551.715 1100.82 550.33 1101.87 549.312 1103.24C548.294 1104.61 547.684 1106.24 547.553 1107.95C547.553 1113.39 547.758 1125.65 547.827 1130.86C547.896 1136.07 544.779 1148.84 562.898 1159.39C574.698 1166.24 585.353 1174.9 594.478 1185.05C597.561 1188.47 613.625 1206.63 635.991 1207.17C658.358 1207.72 681.957 1200.67 678.121 1186.31C677.162 1182.68 658.358 1170.18 658.358 1170.18L553.307 1100.2Z" fill="#263238"/>
<path opacity="0.7" d="M589.409 1055.92C581.668 1006.46 571.735 927.404 566.049 880.65C565.49 876.027 564.609 871.449 563.412 866.949C556.597 842.761 540.625 822.181 518.884 809.577L402.257 740.32L323.135 698.704C323.135 698.704 302.104 759.707 326.56 797.007C346.906 828.039 436.782 866.504 463.567 879.486C490.352 892.467 490.969 895.961 490.284 913.292C489.599 930.624 489.736 952.716 522.549 1021.9C531.968 1041.77 538.545 1056.64 543.1 1068.04C559.463 1069.34 575.784 1065.07 589.409 1055.92V1055.92Z" fill="black"/>
<path d="M553.376 1108.29C553.335 1110.34 553.83 1112.37 554.814 1114.18C559.441 1122.06 565.358 1129.11 572.317 1135.04C588.004 1149.19 640.033 1204.57 658.358 1170.18C658.358 1170.18 604.582 1118.8 597.458 1097.53C593.972 1083.83 591.285 1069.93 589.409 1055.92C575.756 1065.06 559.409 1069.31 543.032 1067.97C553.102 1093.11 553.547 1101.16 553.376 1108.29Z" fill="#945959"/>
<path d="M505.731 1109.08C497.956 1059.62 488.057 980.563 482.337 933.809C479.365 909.239 467.231 886.695 448.359 870.683L308.543 751.794H239.457C239.457 751.794 218.392 812.797 242.882 850.063C263.434 881.095 353.105 919.594 379.89 932.576C406.675 945.557 407.291 949.051 406.606 966.382C405.921 983.714 406.024 1005.81 438.872 1075C448.291 1094.86 454.867 1109.73 459.423 1121.13C475.777 1122.45 492.095 1118.2 505.731 1109.08Z" fill="#D4F1F3"/>
<path d="M469.63 1153.36C468.038 1153.98 466.653 1155.03 465.635 1156.4C464.616 1157.77 464.007 1159.4 463.876 1161.1C463.876 1166.55 464.081 1178.81 464.15 1184.02C464.218 1189.23 461.101 1202 479.221 1212.52C491.018 1219.39 501.673 1228.05 510.801 1238.21C513.883 1241.46 529.913 1259.78 552.314 1260.33C574.715 1260.88 598.246 1253.82 594.444 1239.47C593.451 1235.84 574.646 1223.34 574.646 1223.34L469.63 1153.36Z" fill="#263238"/>
<path opacity="0.7" d="M505.731 1109.08C497.956 1059.62 488.057 980.563 482.337 933.809C479.365 909.239 467.231 886.695 448.359 870.683L308.543 751.794H239.457C239.457 751.794 218.392 812.797 242.882 850.063C263.434 881.095 353.105 919.594 379.89 932.576C406.675 945.557 407.291 949.051 406.606 966.382C405.921 983.714 406.024 1005.81 438.872 1075C448.291 1094.86 454.867 1109.73 459.423 1121.13C475.777 1122.45 492.095 1118.2 505.731 1109.08Z" fill="black"/>
<path d="M469.698 1161.62C469.629 1163.67 470.114 1165.71 471.103 1167.51C475.768 1175.38 481.692 1182.42 488.64 1188.37C504.327 1202.51 556.355 1257.9 574.646 1223.51C574.646 1223.51 520.905 1172.13 513.78 1150.86C510.281 1137.16 507.593 1123.27 505.731 1109.25C492.076 1118.39 475.731 1122.63 459.354 1121.3C469.321 1146.17 469.869 1154.32 469.698 1161.62Z" fill="#945959"/>
<path d="M237.846 416.571C237.846 416.571 234.421 485.76 228.666 503.126C222.912 520.491 178.111 578.48 244.868 612.287C311.624 646.093 389.582 600.675 389.582 571.013C389.582 541.351 367.318 547.037 363.105 468.052C358.892 389.067 237.846 416.571 237.846 416.571Z" fill="#263238"/>
<path d="M821.124 868.08V1155.14L837.257 1145.59V868.08H821.124Z" fill="#455A64"/>
<path d="M821.124 868.08V1155.14L804.991 1145.59V868.08H821.124Z" fill="#37474F"/>
<path d="M255.589 989.64V1266.91L271.721 1257.35V979.844L255.589 989.64Z" fill="#455A64"/>
<path d="M255.588 979.844V1266.91L239.456 1257.35V979.844H255.588Z" fill="#37474F"/>
<path d="M442.159 1096.88L239.456 979.844V933.878L442.159 1050.95V1096.88Z" fill="#37474F"/>
<path d="M634.555 770.599V1047.87L650.687 1038.31V760.803L634.555 770.599Z" fill="#455A64"/>
<path d="M634.555 770.599V1047.87L618.422 1038.31V760.803L634.555 770.599Z" fill="#37474F"/>
<path d="M442.157 1096.88L837.253 868.08V822.114L442.157 1050.95V1096.88Z" fill="#455A64"/>
<path d="M224.797 894.454L596.464 680.756C606.092 675.217 617.006 672.302 628.113 672.302C639.221 672.302 650.134 675.217 659.762 680.756L841.948 785.944C844.672 787.516 846.934 789.777 848.507 792.501C850.08 795.225 850.909 798.314 850.909 801.46C850.909 804.605 850.08 807.695 848.507 810.419C846.934 813.142 844.672 815.404 841.948 816.976L473.534 1029.61C463.994 1035.12 453.185 1038.04 442.171 1038.1C431.156 1038.16 420.316 1035.36 410.716 1029.95L224.934 925.452C222.219 923.882 219.963 921.629 218.39 918.917C216.817 916.205 215.982 913.127 215.968 909.992C215.954 906.856 216.762 903.772 218.311 901.046C219.86 898.32 222.096 896.047 224.797 894.454Z" fill="#455A64"/>
<path d="M841.981 816.839L473.534 1029.61C463.994 1035.12 453.185 1038.04 442.17 1038.1C431.156 1038.16 420.315 1035.36 410.716 1029.95L224.934 925.451C222.15 923.894 219.838 921.615 218.241 918.854C216.644 916.093 215.82 912.953 215.857 909.764V909.764V924.801C215.913 927.915 216.783 930.961 218.382 933.635C219.98 936.309 222.251 938.518 224.968 940.043L410.75 1044.55C420.349 1049.95 431.19 1052.76 442.205 1052.7C453.219 1052.64 464.028 1049.71 473.568 1044.2L841.981 831.43C844.657 829.893 846.886 827.686 848.447 825.025C850.009 822.364 850.85 819.342 850.887 816.256V816.256V801.323C850.907 804.465 850.093 807.557 848.528 810.282C846.964 813.008 844.705 815.27 841.981 816.839Z" fill="#263238"/>
<path d="M442.157 1087.12V1374.19L458.29 1364.63V1087.12H442.157Z" fill="#455A64"/>
<path d="M442.158 1087.12V1374.19L426.026 1364.63V1087.12H442.158Z" fill="#37474F"/>
<path d="M810.37 770.188L565.229 912.573V918.191L810.233 775.806C811.698 775.149 812.962 774.115 813.895 772.809C814.828 771.503 815.396 769.972 815.542 768.373V762.756C815.396 764.336 814.843 765.851 813.936 767.154C813.03 768.457 811.801 769.502 810.37 770.188V770.188Z" fill="#E0E0E0"/>
<path d="M539.539 912.539L425.172 846.501C423.686 845.833 422.403 844.784 421.453 843.461C420.503 842.138 419.919 840.587 419.76 838.966V844.583C419.902 846.205 420.475 847.759 421.421 849.085C422.367 850.41 423.65 851.457 425.138 852.118L539.505 918.156C543.503 920.2 547.928 921.266 552.418 921.266C556.908 921.266 561.334 920.2 565.331 918.156V912.539C561.335 914.567 556.917 915.624 552.435 915.624C547.954 915.624 543.536 914.567 539.539 912.539V912.539Z" fill="#E0E0E0"/>
<path opacity="0.5" d="M419.76 839V844.617C419.902 846.239 420.475 847.794 421.421 849.119C422.367 850.444 423.65 851.492 425.138 852.153V846.501C423.663 845.831 422.39 844.786 421.447 843.469C420.503 842.153 419.921 840.612 419.76 839V839Z" fill="#CFD4DC"/>
<path d="M810.265 755.22L695.898 689.182C691.9 687.138 687.474 686.072 682.985 686.072C678.495 686.072 674.069 687.138 670.072 689.182L425.068 831.567C417.978 835.678 418.012 842.391 425.068 846.536L539.435 912.539C543.436 914.572 547.86 915.632 552.348 915.632C556.836 915.632 561.26 914.572 565.261 912.539L810.265 770.154C817.458 766.044 817.423 759.33 810.265 755.22Z" fill="#FAFAFA"/>
<path d="M554.265 872.293C554.264 872.764 554.141 873.226 553.906 873.635C553.672 874.043 553.335 874.384 552.929 874.622L513.368 897.434L512.683 897.057L552.587 873.903C552.885 873.727 553.132 873.477 553.304 873.177C553.476 872.876 553.566 872.536 553.566 872.19C553.566 871.844 553.476 871.504 553.304 871.204C553.132 870.903 552.885 870.653 552.587 870.477L504.976 843.076C504.671 842.912 504.329 842.83 503.983 842.836C503.637 842.827 503.294 842.909 502.99 843.076L461.1 867.258L460.38 866.881L502.647 842.494C503.053 842.259 503.514 842.136 503.983 842.136C504.452 842.136 504.913 842.259 505.319 842.494L552.929 869.895C553.345 870.139 553.689 870.491 553.924 870.912C554.158 871.334 554.276 871.81 554.265 872.293V872.293ZM496.722 878.664L490.591 875.239C490.231 875.052 489.831 874.955 489.426 874.955C489.021 874.955 488.621 875.052 488.262 875.239L486.309 876.335C486.164 876.381 486.037 876.472 485.947 876.596C485.858 876.719 485.809 876.867 485.809 877.02C485.809 877.172 485.858 877.321 485.947 877.444C486.037 877.567 486.164 877.658 486.309 877.705L492.44 881.13C492.8 881.316 493.2 881.413 493.605 881.413C494.01 881.413 494.409 881.316 494.769 881.13L496.722 880C496.855 879.946 496.97 879.854 497.05 879.735C497.131 879.616 497.174 879.475 497.174 879.332C497.174 879.188 497.131 879.047 497.05 878.928C496.97 878.809 496.855 878.717 496.722 878.664V878.664Z" fill="#E0E0E0"/>
<path d="M329.23 848.282L391.706 885.959C397.957 889.734 403.154 895.026 406.814 901.345C410.474 907.664 412.479 914.805 412.643 922.106C412.807 929.406 411.124 936.63 407.752 943.107C404.379 949.584 399.425 955.104 393.35 959.156L462.025 996.833C472.713 1002.68 481.696 1011.21 488.091 1021.58C494.487 1031.95 498.075 1043.81 498.503 1055.99L501.449 1139.32L701.172 1015.84V937.782C701.156 925.566 697.873 913.575 691.664 903.054C685.455 892.533 676.545 883.863 665.858 877.944L468.327 768.852L329.23 848.282Z" fill="#D4F1F3"/>
<path opacity="0.5" d="M329.23 848.282L391.706 885.959C397.957 889.734 403.154 895.026 406.814 901.345C410.474 907.664 412.479 914.805 412.643 922.106C412.807 929.406 411.124 936.63 407.752 943.107C404.379 949.584 399.425 955.104 393.35 959.156L462.025 996.833C472.713 1002.68 481.696 1011.21 488.091 1021.58C494.487 1031.95 498.075 1043.81 498.503 1055.99L501.449 1139.32L701.172 1015.84V937.782C701.156 925.566 697.873 913.575 691.664 903.054C685.455 892.533 676.545 883.863 665.858 877.944L468.327 768.852L329.23 848.282Z" fill="white"/>
<path d="M363.896 527.205C363.896 527.205 406.163 524.568 414.828 565.054C423.494 605.539 442.778 675.995 442.778 675.995C442.778 675.995 517.139 719.461 524.503 723.64C531.867 727.819 560.673 736.895 570.537 762.755C573.517 770.496 568.277 792.246 556.837 793.582C545.396 794.918 540.67 776.696 529.743 768.921L518.817 761.111C518.817 761.111 525.941 778.922 521.249 787.074C516.556 795.226 496.382 756.967 494.498 753.884C492.614 750.802 457.403 737.135 448.772 733.47L423.049 722.852C416.277 720.034 410.243 715.699 405.409 710.183C400.576 704.667 397.072 698.115 395.168 691.032L382.323 643.319L363.896 527.205Z" fill="#945959"/>
<path d="M342.144 527.958L289.499 529.157C289.499 529.157 267.166 532.993 256.617 536.008C256.617 536.008 240.655 575.089 256.617 667.912C257.131 671.063 247.061 742.238 247.061 742.238C247.061 742.238 293.335 784.813 357.146 774.915C384.239 770.702 397.666 759.501 402.256 740.115C402.256 740.115 384.102 724.359 384.616 706.376C385.13 688.394 389.137 649.484 389.137 649.484C389.137 649.484 410.134 639.585 410.134 611.225C410.134 582.864 385.198 549.571 363.894 527.068L342.144 527.958Z" fill="#D4F1F3"/>
<path opacity="0.4" d="M342.144 527.958L289.499 529.157C289.499 529.157 267.166 532.993 256.617 536.008C256.617 536.008 240.655 575.089 256.617 667.912C257.131 671.063 247.061 742.238 247.061 742.238C247.061 742.238 293.335 784.813 357.146 774.915C384.239 770.702 397.666 759.501 402.256 740.115C402.256 740.115 384.102 724.359 384.616 706.376C385.13 688.394 389.137 649.484 389.137 649.484C389.137 649.484 410.134 639.585 410.134 611.225C410.134 582.864 385.198 549.571 363.894 527.068L342.144 527.958Z" fill="black"/>
<path d="M273.06 357.316C273.06 357.316 270.319 336.319 266.655 336.217C262.99 336.114 261.14 353.925 261.14 353.925C261.14 353.925 244.459 350.26 245.59 355.363C246.72 360.467 265.764 367.9 265.764 367.9L273.06 357.316Z" fill="#263238"/>
<path d="M237.64 424.586C237.983 482.814 289.497 493.57 289.497 493.57L393.281 457.571C393.281 457.571 401.775 451.851 406.091 436.78C407.805 430.603 408.635 424.214 408.557 417.804C408.557 417.804 408.557 417.804 408.557 417.633C408.557 393.109 393.692 364.851 355.432 351.835C347.046 349.008 338.392 347.045 329.606 345.978C325.391 345.421 321.149 345.089 316.899 344.985C285.867 344.06 262.747 355.569 249.697 376.428C246.774 381.14 244.407 386.174 242.641 391.43C239.123 402.123 237.433 413.332 237.64 424.586V424.586Z" fill="#263238"/>
<path d="M289.5 529.226L291.864 533.336C303.325 553.158 320.196 569.305 340.502 579.885L347.078 583.31C348.087 583.835 349.215 584.09 350.352 584.051C351.489 584.012 352.597 583.68 353.569 583.088C354.54 582.495 355.342 581.662 355.897 580.669C356.452 579.676 356.741 578.556 356.737 577.419V577.419C356.69 561.489 352.462 545.851 344.475 532.069L342.146 528.027V452.605H289.5V529.226Z" fill="#945959"/>
<path d="M289.5 463.908V465.826C298.262 492.617 317.157 514.917 342.146 527.959V452.605H290.973L289.5 463.908Z" fill="#703838"/>
<path d="M341.357 364.851C359.99 367.249 398.283 382.73 396.571 432.053C394.858 481.376 385.644 518.608 360.024 519.019C334.404 519.43 278.333 493.707 278.607 429.621C278.881 365.536 323.203 362.522 341.357 364.851Z" fill="#945959"/>
<path d="M360.468 452.091L356.769 480.828L374.272 477.814L360.468 452.091Z" fill="#703838"/>
<path d="M335.738 448.323C335.666 449.493 335.942 450.659 336.532 451.672C337.123 452.685 338 453.5 339.054 454.014C340.108 454.529 341.29 454.719 342.452 454.561C343.614 454.402 344.702 453.903 345.58 453.126C346.458 452.349 347.086 451.329 347.384 450.195C347.682 449.061 347.636 447.864 347.254 446.755C346.871 445.647 346.168 444.677 345.234 443.968C344.3 443.26 343.177 442.844 342.006 442.774C341.23 442.723 340.451 442.827 339.714 443.078C338.978 443.33 338.298 443.726 337.715 444.242C337.133 444.758 336.658 445.384 336.318 446.084C335.979 446.785 335.782 447.546 335.738 448.323V448.323Z" fill="#263238"/>
<path d="M374.752 446.542C374.687 447.703 374.967 448.857 375.557 449.859C376.147 450.861 377.02 451.667 378.066 452.174C379.113 452.681 380.286 452.866 381.438 452.708C382.59 452.549 383.669 452.054 384.54 451.283C385.41 450.512 386.033 449.501 386.33 448.377C386.627 447.253 386.585 446.066 386.209 444.965C385.833 443.865 385.139 442.901 384.216 442.194C383.293 441.487 382.181 441.069 381.021 440.993C379.454 440.899 377.914 441.431 376.739 442.471C375.564 443.511 374.849 444.975 374.752 446.542V446.542Z" fill="#263238"/>
<path d="M388.589 435.033L377.458 427.498C377.458 427.498 382.15 423.182 386.397 426.196C387.612 427.275 388.472 428.697 388.863 430.275C389.254 431.852 389.159 433.511 388.589 435.033V435.033Z" fill="#263238"/>
<path d="M365.882 486.377C360.254 486.776 354.655 485.268 349.989 482.095C349.989 482.095 348.893 490.487 355.915 492.097C357.98 492.433 360.099 492.048 361.914 491.006C363.729 489.965 365.13 488.33 365.882 486.377V486.377Z" fill="#703838"/>
<path d="M386.466 387.526C386.466 387.526 370.813 453.94 279.052 444.281C279.052 444.281 260.008 373.86 317.414 359.165C374.821 344.471 386.466 387.526 386.466 387.526Z" fill="#263238"/>
<path d="M292.752 451.131C292.752 451.131 289.087 431.471 275.318 432.19C260.179 432.978 259.288 447.672 259.905 452.741C261.514 466.442 273.605 480.143 294.157 479.047L292.752 451.131Z" fill="#945959"/>
<path d="M261.89 534.809C261.89 534.809 282.989 547.722 275.797 611.396L280.421 720.112C280.421 720.112 319.228 743.095 347.349 755.871C375.47 768.647 416.606 790.91 431.437 799.165C446.268 807.42 456.783 811.873 456.783 817.353C456.783 821.258 447.604 819.168 447.604 819.168C447.604 819.168 469.799 833.246 467.162 843.521C464.524 853.797 430.067 860.956 408.249 846.296C393.859 836.27 380.766 824.501 369.27 811.256L262.164 777.997C252.657 775.053 244.243 769.343 237.996 761.595C231.749 753.847 227.952 744.413 227.09 734.498C222.877 687.949 215.856 607.183 215.856 588.345C215.856 550.668 241.784 537.926 261.89 534.809Z" fill="#945959"/>
<path d="M677.815 793.342L635.377 768.681L635.445 688.086L677.849 712.714L677.815 793.342Z" fill="#D4F1F3"/>
<g opacity="0.2">
<path opacity="0.2" d="M677.813 793.342L635.375 768.681L635.443 688.086L677.847 712.713L677.813 793.342Z" fill="black"/>
</g>
<path d="M744.673 614.616C759.401 623.145 771.286 643.73 771.252 660.651C771.218 677.571 759.23 684.421 744.501 675.893C729.773 667.364 717.853 646.813 717.922 629.858C717.99 612.903 729.944 606.122 744.673 614.616Z" fill="#37474F"/>
<path d="M763.134 642.668C760.767 637.32 757.616 632.356 753.783 627.939C750.753 624.425 747.18 621.418 743.199 619.034C736.349 615.163 730.355 614.787 726.073 617.356L721.175 620.198C725.56 617.664 731.656 618.006 738.301 621.911C742.279 624.286 745.842 627.294 748.851 630.817C752.706 635.204 755.86 640.16 758.202 645.511C760.837 651.208 762.271 657.388 762.415 663.664C762.415 671.302 759.674 676.68 755.359 679.18L760.257 676.337C764.607 673.837 767.278 668.459 767.313 660.821C767.168 654.549 765.747 648.372 763.134 642.668V642.668Z" fill="#263238"/>
<path d="M765.945 666.747C765.802 659.361 764.135 652.085 761.047 645.374V645.374C758.26 639.087 754.542 633.256 750.018 628.077C746.465 623.936 742.267 620.396 737.584 617.595C729.672 613.04 722.514 612.595 717.342 615.609L698.229 626.706C703.401 623.727 710.56 624.138 718.472 628.693C723.16 631.485 727.36 635.025 730.905 639.174C735.43 644.366 739.148 650.208 741.934 656.506V656.506C745.025 663.203 746.693 670.469 746.832 677.845C746.832 686.819 743.647 693.121 738.543 696.067L757.656 684.969C760.511 683.229 762.723 680.609 763.958 677.502C765.337 674.087 766.012 670.429 765.945 666.747V666.747Z" fill="#455A64"/>
<path d="M757.654 684.969L738.542 696.101L746.008 745.801L765.121 734.703L757.654 684.969Z" fill="#37474F"/>
<path d="M772.041 637.565C769.439 631.684 765.976 626.224 761.766 621.364C758.433 617.487 754.501 614.168 750.12 611.533C742.688 607.252 735.974 606.875 731.145 609.684L725.733 612.835C730.562 610.026 737.276 610.403 744.708 614.684C749.081 617.318 753.011 620.623 756.354 624.48C760.569 629.35 764.032 634.823 766.63 640.716C769.512 647.001 771.085 653.807 771.254 660.719C771.254 668.837 768.445 674.42 763.992 677.468L768.925 674.625C773.686 671.851 776.665 665.925 776.7 657.499C776.51 650.608 774.926 643.826 772.041 637.565V637.565Z" fill="#455A64"/>
<path d="M746.761 677.845C746.761 659.794 734.122 637.77 718.4 628.693C702.678 619.616 689.902 626.912 689.834 644.963C690.165 654.766 692.982 664.325 698.02 672.741L690.279 713.672L745.939 745.8L738.472 696.067C743.644 693.121 746.761 686.819 746.761 677.845Z" fill="#263238"/>
<path d="M730.902 639.174L705.179 653.937L627.29 698.738L518.815 761.043L508.128 771.729L500.49 766.078L466.546 746.348C468.956 742.215 472.388 738.77 476.514 736.347L494.188 726.071L688.533 614.513L705.145 624.172L730.902 639.174Z" fill="#D4F1F3"/>
<g opacity="0.2">
<path opacity="0.2" d="M730.906 639.174L705.183 653.937L627.294 698.738L518.818 761.043L508.132 771.729L500.494 766.078L466.55 746.348C468.959 742.215 472.392 738.77 476.517 736.347L494.191 726.071L688.537 614.513L705.149 624.172L730.906 639.174Z" fill="white"/>
</g>
<path d="M531.246 854.825L511.722 843.556C511.656 843.513 511.578 843.49 511.499 843.49C511.42 843.49 511.343 843.513 511.277 843.556L506.482 846.364C506.543 846.325 506.614 846.303 506.687 846.303C506.76 846.303 506.831 846.325 506.893 846.364L526.416 857.633C526.858 857.89 527.347 858.053 527.855 858.113L532.684 855.304C532.173 855.265 531.678 855.1 531.246 854.825V854.825Z" fill="#455A64"/>
<path d="M527.855 858.113L532.685 855.304L538.542 855.475L533.747 858.284L527.855 858.113Z" fill="#37474F"/>
<path d="M533.987 858.352C534.249 858.519 534.444 858.774 534.535 859.072C534.535 859.483 534.535 859.825 534.261 859.825L528.404 859.654C527.701 859.615 527.018 859.403 526.417 859.038L506.893 847.769C506.715 847.652 506.567 847.495 506.46 847.311C506.352 847.126 506.29 846.92 506.277 846.707C506.277 846.33 506.551 846.159 506.893 846.364L526.417 857.633C526.859 857.89 527.348 858.053 527.856 858.113L533.747 858.284L533.987 858.352Z" fill="#263238"/>
<path d="M508.883 801.015L513.404 798.309L513.438 851.571L508.917 854.242L508.883 801.015Z" fill="#37474F"/>
<path d="M507.099 799.953L511.586 797.281L513.402 798.309L508.881 801.015L507.099 799.953Z" fill="#8A8D93"/>
<path d="M508.881 801.014L508.915 854.242L507.099 853.18V799.953L508.881 801.014Z" fill="#263238"/>
<path d="M512.956 791.835L521.245 787.006L521.177 840.233L512.888 845.062L512.956 791.835Z" fill="#263238"/>
<path d="M504.598 787.006L512.887 782.176L521.244 787.006L512.955 791.835L504.598 787.006Z" fill="#8A8D93"/>
<path d="M512.956 791.835L512.887 845.062L504.53 840.233L504.598 787.006L512.956 791.835Z" fill="#455A64"/>
<path d="M523.03 859.62L503.506 848.351C503.445 848.311 503.374 848.29 503.301 848.29C503.228 848.29 503.157 848.311 503.095 848.351L498.266 851.125C498.335 851.092 498.411 851.074 498.489 851.074C498.566 851.074 498.642 851.092 498.711 851.125L518.235 862.428C518.669 862.695 519.164 862.848 519.673 862.874L524.503 860.099C523.984 860.045 523.482 859.882 523.03 859.62Z" fill="#455A64"/>
<path d="M519.673 862.873L524.503 860.065L530.36 860.27L525.531 863.045L519.673 862.873Z" fill="#37474F"/>
<path d="M531.149 861.058C531.089 860.921 531.008 860.793 530.909 860.681C530.833 860.594 530.74 860.524 530.635 860.476C530.558 860.447 530.472 860.447 530.395 860.476L525.566 863.25C525.655 863.221 525.751 863.221 525.84 863.25C525.946 863.296 526.04 863.366 526.114 863.456C526.194 863.562 526.263 863.677 526.319 863.798C526.319 863.798 526.319 864.415 526.319 864.518L531.149 861.743C531.149 861.743 531.251 861.366 531.149 861.058Z" fill="#455A64"/>
<path d="M525.805 863.147C526.064 863.303 526.258 863.546 526.353 863.832C526.353 864.277 526.353 864.62 526.045 864.586H520.188C519.492 864.538 518.821 864.314 518.235 863.935L498.712 852.666C498.532 852.559 498.382 852.409 498.274 852.23C498.167 852.05 498.105 851.847 498.095 851.639C498.095 851.228 498.369 851.091 498.712 851.262L518.235 862.565C518.67 862.831 519.165 862.984 519.674 863.01L525.531 863.181C525.617 863.141 525.712 863.129 525.805 863.147V863.147Z" fill="#263238"/>
<path d="M522.173 836.226C522.093 836.225 522.014 836.242 521.942 836.273C521.869 836.304 521.803 836.35 521.748 836.408C521.694 836.466 521.652 836.534 521.624 836.609C521.597 836.683 521.586 836.763 521.59 836.842L522.104 853.968L522.618 836.842C522.63 836.703 522.591 836.564 522.51 836.451C522.428 836.338 522.308 836.258 522.173 836.226V836.226Z" fill="#263238"/>
<path d="M524.782 835.986V839.651C524.754 839.876 524.671 840.091 524.539 840.277C524.408 840.462 524.232 840.612 524.028 840.712C523.46 840.998 522.832 841.147 522.196 841.147C521.56 841.147 520.932 840.998 520.363 840.712C520.151 840.619 519.967 840.472 519.829 840.286C519.691 840.1 519.604 839.881 519.576 839.651V835.849C519.591 836.082 519.669 836.307 519.802 836.5C519.934 836.693 520.117 836.847 520.329 836.945C520.898 837.231 521.525 837.38 522.162 837.38C522.798 837.38 523.426 837.231 523.994 836.945C524.202 836.849 524.381 836.701 524.513 836.515C524.646 836.328 524.726 836.11 524.748 835.883L524.782 835.986Z" fill="#37474F"/>
<path d="M524.129 834.924C524.346 835.003 524.534 835.148 524.667 835.338C524.8 835.528 524.871 835.754 524.871 835.985C524.871 836.217 524.8 836.444 524.667 836.633C524.534 836.823 524.346 836.968 524.129 837.047C523.56 837.333 522.933 837.482 522.296 837.482C521.66 837.482 521.032 837.333 520.464 837.047C520.246 836.968 520.058 836.823 519.925 836.633C519.792 836.444 519.721 836.217 519.721 835.985C519.721 835.754 519.792 835.528 519.925 835.338C520.058 835.148 520.246 835.003 520.464 834.924C521.032 834.638 521.66 834.489 522.296 834.489C522.933 834.489 523.56 834.638 524.129 834.924V834.924Z" fill="#263238"/>
<path d="M524.131 792.349V835.677C524.115 835.858 524.053 836.032 523.951 836.181C523.849 836.331 523.711 836.453 523.549 836.534C523.098 836.742 522.607 836.851 522.11 836.851C521.613 836.851 521.122 836.742 520.672 836.534C520.509 836.453 520.371 836.331 520.269 836.181C520.167 836.032 520.105 835.858 520.089 835.677V792.349C520.103 792.53 520.169 792.704 520.278 792.849C520.387 792.995 520.536 793.106 520.706 793.171C521.142 793.408 521.631 793.532 522.127 793.532C522.624 793.532 523.112 793.408 523.549 793.171C523.719 793.106 523.867 792.995 523.976 792.849C524.085 792.704 524.151 792.53 524.165 792.349H524.131Z" fill="#455A64"/>
<path d="M523.613 791.698C523.791 791.75 523.947 791.858 524.059 792.007C524.17 792.155 524.23 792.335 524.23 792.52C524.23 792.706 524.17 792.886 524.059 793.034C523.947 793.182 523.791 793.29 523.613 793.342C523.177 793.579 522.688 793.703 522.192 793.703C521.695 793.703 521.207 793.579 520.77 793.342C520.593 793.29 520.436 793.182 520.325 793.034C520.214 792.886 520.154 792.706 520.154 792.52C520.154 792.335 520.214 792.155 520.325 792.007C520.436 791.858 520.593 791.75 520.77 791.698C521.212 791.478 521.698 791.364 522.192 791.364C522.685 791.364 523.172 791.478 523.613 791.698V791.698Z" fill="#8A8D93"/>
<path d="M510.763 840.096C510.588 839.721 510.357 839.375 510.078 839.068C509.869 838.807 509.614 838.586 509.325 838.418C509.14 838.302 508.926 838.241 508.708 838.241C508.49 838.241 508.277 838.302 508.092 838.418L506.139 839.548C506.328 839.443 506.54 839.388 506.756 839.388C506.972 839.388 507.184 839.443 507.372 839.548C507.654 839.713 507.908 839.921 508.126 840.164C508.394 840.484 508.614 840.842 508.777 841.226C508.979 841.63 509.085 842.076 509.085 842.528C509.108 842.74 509.072 842.955 508.982 843.148C508.891 843.341 508.749 843.506 508.571 843.624L510.558 842.493C510.729 842.363 510.864 842.191 510.948 841.992C511.032 841.794 511.063 841.577 511.037 841.363C511.021 840.928 510.929 840.499 510.763 840.096V840.096Z" fill="#37474F"/>
<path d="M507.374 839.65C507.877 839.974 508.296 840.413 508.594 840.932C508.892 841.45 509.061 842.033 509.087 842.63C509.087 843.726 508.299 844.172 507.34 843.589C506.837 843.266 506.418 842.827 506.12 842.308C505.822 841.79 505.653 841.207 505.627 840.609C505.627 839.445 506.415 839.034 507.374 839.65Z" fill="#263238"/>
<path d="M688.534 614.513L730.938 639.174L742.926 640.647L698.398 614.684C696.862 613.953 695.186 613.559 693.485 613.53C691.783 613.5 690.095 613.836 688.534 614.513V614.513Z" fill="#D4F1F3"/>
<path opacity="0.2" d="M688.534 614.513L730.938 639.174L742.926 640.647L698.398 614.684C696.862 613.953 695.186 613.559 693.485 613.53C691.783 613.5 690.095 613.836 688.534 614.513V614.513Z" fill="black"/>
<path d="M747.414 650.101V753.131L677.746 793.342V735.628C677.751 733.309 677.144 731.029 675.988 729.02C674.831 727.01 673.164 725.341 671.156 724.18C669.149 723.02 666.87 722.41 664.551 722.411C662.232 722.412 659.955 723.025 657.948 724.188L541.252 791.698V815.983L505.116 836.739V784.471C505.104 779.719 506.345 775.048 508.715 770.928C511.084 766.809 514.498 763.387 518.611 761.008L728.986 639.586C730.838 638.471 732.954 637.871 735.115 637.846C737.276 637.821 739.404 638.373 741.281 639.444C743.158 640.515 744.716 642.067 745.794 643.94C746.872 645.813 747.431 647.94 747.414 650.101V650.101Z" fill="#D4F1F3"/>
<path d="M505.287 836.602V784.471C505.284 779.735 506.524 775.082 508.883 770.975L500.492 766.112L466.617 746.383C464.278 750.485 463.039 755.122 463.02 759.844V811.975L505.287 836.636V836.602Z" fill="#D4F1F3"/>
<path opacity="0.2" d="M505.287 836.602V784.471C505.284 779.735 506.524 775.082 508.883 770.975L500.492 766.112L466.617 746.383C464.278 750.485 463.039 755.122 463.02 759.844V811.975L505.287 836.636V836.602Z" fill="black"/>
<path d="M507.34 746.726L503.299 749.089L521.349 759.536V803.378L525.425 801.049V757.207L507.34 746.726Z" fill="#D4F1F3"/>
<path opacity="0.2" d="M507.34 746.726L503.299 749.089L521.349 759.536V803.378L525.425 801.049V757.207L507.34 746.726Z" fill="black"/>
<path d="M722.786 702.643C719.645 704.499 716.988 707.07 715.03 710.147C713.071 713.224 711.868 716.721 711.517 720.351C711.209 727.202 715.73 730.148 721.621 727.202C724.762 725.346 727.419 722.775 729.378 719.698C731.336 716.621 732.539 713.124 732.89 709.494C733.061 702.643 728.609 699.561 722.786 702.643Z" fill="#455A64"/>
<path d="M711.791 729.565L718.847 728.058C714.429 728.983 711.312 726.071 711.449 720.625V720.283C711.735 716.831 712.838 713.496 714.668 710.555C716.613 707.235 719.417 704.502 722.786 702.643C727.581 700.211 731.452 701.753 732.582 706.068L730.767 699.218C729.225 693.292 723.916 691.169 717.237 694.56C712.588 697.15 708.738 700.964 706.105 705.589C703.553 709.636 702.024 714.245 701.653 719.016V719.529C701.413 726.825 705.66 730.832 711.791 729.565Z" fill="#263238"/>
<path d="M635.032 713.638C633.299 714.649 631.833 716.059 630.754 717.751C629.676 719.443 629.017 721.368 628.833 723.366C628.833 727.065 631.127 728.743 634.381 727.099C636.102 726.078 637.558 724.664 638.629 722.974C639.701 721.283 640.358 719.364 640.547 717.372C640.752 713.638 638.252 711.994 635.032 713.638Z" fill="#455A64"/>
<path d="M629.004 728.469L632.875 727.647C630.443 728.161 628.764 726.551 628.833 723.571V723.366C629.015 721.367 629.672 719.441 630.751 717.749C631.829 716.057 633.298 714.647 635.032 713.638C637.636 712.303 639.793 713.159 640.41 715.488L639.382 711.652C638.56 708.432 635.615 707.233 631.984 709.117C629.589 710.51 627.562 712.455 626.073 714.791C624.583 717.127 623.674 719.785 623.421 722.544C623.421 722.544 623.421 722.715 623.421 722.818C623.455 726.962 625.647 729.154 629.004 728.469Z" fill="#263238"/>
<path d="M659.9 699.218C658.171 700.234 656.707 701.645 655.629 703.336C654.551 705.027 653.89 706.949 653.7 708.946C653.529 712.679 655.995 714.323 659.249 712.679C660.977 711.662 662.439 710.25 663.516 708.559C664.594 706.869 665.256 704.947 665.449 702.952C665.62 699.218 663.12 697.677 659.9 699.218Z" fill="#455A64"/>
<path d="M653.87 714.152L657.74 713.33C655.342 713.844 653.63 712.234 653.698 709.254V709.048C653.857 707.151 654.467 705.318 655.479 703.705C656.533 701.874 658.059 700.36 659.898 699.321C662.535 697.985 664.659 698.841 665.276 701.17L664.282 697.368C663.426 693.943 660.48 692.916 656.85 694.8C654.455 696.192 652.428 698.138 650.938 700.474C649.449 702.809 648.539 705.468 648.287 708.226V708.5C648.184 712.645 650.547 714.837 653.87 714.152Z" fill="#263238"/>
<path d="M738.405 656.301L676.889 691.82V696.923L738.405 661.438V656.301Z" fill="#455A64"/>
<path d="M736.486 669.59L728.711 665.069V661.918L736.486 666.439V669.59Z" fill="#263238"/>
<path d="M736.486 666.439L728.711 661.918L738.404 656.301L746.179 660.822L736.486 666.439Z" fill="#37474F"/>
<path d="M746.179 660.822V664.007L736.486 669.59V666.439L746.179 660.822Z" fill="#455A64"/>
<path d="M547.249 768.852C547.063 768.722 546.891 768.573 546.736 768.407C546.533 768.186 546.37 767.931 546.256 767.653C546.123 767.363 546.053 767.048 546.051 766.729C546.04 766.579 546.065 766.43 546.125 766.292C546.185 766.155 546.277 766.034 546.393 765.941L544.612 767.002C544.481 767.076 544.376 767.187 544.309 767.322C544.241 767.456 544.216 767.607 544.235 767.756C544.255 768.073 544.324 768.385 544.441 768.681C544.572 768.949 544.733 769.202 544.92 769.434C545.078 769.611 545.263 769.761 545.468 769.88C545.6 769.952 545.747 769.989 545.897 769.989C546.046 769.989 546.193 769.952 546.325 769.88L548.14 768.818C548.006 768.898 547.855 768.943 547.699 768.949C547.543 768.955 547.389 768.922 547.249 768.852V768.852Z" fill="#455A64"/>
<path d="M549.748 766.934C549.442 766.27 549.05 765.648 548.584 765.084C548.264 764.728 547.908 764.407 547.522 764.125V764.125C547.318 764.005 547.099 763.913 546.871 763.851C541.562 761.522 531.355 762.755 521.696 764.81V765.461C530.841 763.611 540.192 762.652 545.193 764.844L545.809 765.118C546.202 765.379 546.559 765.69 546.871 766.043C547.353 766.603 547.756 767.225 548.07 767.893C548.494 768.801 548.648 769.811 548.515 770.804C548.484 771.064 548.394 771.314 548.252 771.533C548.109 771.753 547.918 771.937 547.693 772.072L549.509 771.044C549.721 770.899 549.9 770.712 550.036 770.493C550.172 770.275 550.26 770.031 550.296 769.777C550.402 768.796 550.211 767.805 549.748 766.934V766.934Z" fill="#455A64"/>
<path d="M545.707 765.187L545.091 764.913C540.09 762.721 530.739 763.68 521.594 765.53V770.565C525.731 769.641 529.916 768.943 534.13 768.475C538.066 768.491 541.907 769.684 545.159 771.901L545.639 772.175C545.879 772.311 546.131 772.425 546.392 772.517C546.63 772.615 546.887 772.655 547.144 772.635C547.4 772.615 547.648 772.535 547.868 772.402C548.088 772.269 548.273 772.086 548.409 771.868C548.546 771.65 548.629 771.403 548.653 771.147C548.766 769.978 548.55 768.8 548.03 767.747C547.509 766.694 546.705 765.807 545.707 765.187V765.187ZM545.467 769.88C545.107 769.65 544.807 769.337 544.592 768.968C544.378 768.598 544.255 768.183 544.234 767.756C544.234 767.003 544.817 766.694 545.467 767.071C545.828 767.301 546.128 767.613 546.342 767.983C546.557 768.352 546.68 768.768 546.7 769.195C546.7 769.948 546.152 770.256 545.467 769.88V769.88Z" fill="#263238"/>
<path d="M713.675 640.339C713.244 641.525 712.407 642.52 711.312 643.148L579.339 719.153C577.038 720.482 574.427 721.181 571.77 721.181C569.112 721.181 566.501 720.482 564.2 719.153L549.369 710.624C548.256 710.002 547.413 708.989 547.006 707.781C546.58 706.61 546.569 705.329 546.974 704.151C547.38 702.973 548.176 701.969 549.232 701.308L679.047 626.536C682.057 624.818 685.462 623.914 688.928 623.914C692.394 623.914 695.8 624.818 698.81 626.536L711.415 633.831C712.489 634.485 713.302 635.491 713.714 636.679C714.127 637.867 714.113 639.161 713.675 640.339Z" fill="#D4F1F3"/>
<path d="M713.675 640.339C713.066 640.203 712.478 639.984 711.928 639.688L699.598 632.564C696.357 630.681 692.676 629.689 688.928 629.689C685.18 629.689 681.499 630.681 678.259 632.564L548.821 707.13C548.257 707.448 547.643 707.668 547.006 707.781C546.58 706.61 546.569 705.329 546.974 704.151C547.38 702.973 548.176 701.969 549.232 701.308L679.047 626.536C682.057 624.818 685.462 623.914 688.928 623.914C692.394 623.914 695.8 624.818 698.81 626.536L711.415 633.831C712.489 634.485 713.302 635.491 713.714 636.679C714.127 637.867 714.113 639.161 713.675 640.339Z" fill="#D4F1F3"/>
<path opacity="0.2" d="M713.675 640.339C713.066 640.203 712.478 639.984 711.928 639.688L699.598 632.564C696.357 630.681 692.676 629.689 688.928 629.689C685.18 629.689 681.499 630.681 678.259 632.564L548.821 707.13C548.257 707.448 547.643 707.668 547.006 707.781C546.58 706.61 546.569 705.329 546.974 704.151C547.38 702.973 548.176 701.969 549.232 701.308L679.047 626.536C682.057 624.818 685.462 623.914 688.928 623.914C692.394 623.914 695.8 624.818 698.81 626.536L711.415 633.831C712.489 634.485 713.302 635.491 713.714 636.679C714.127 637.867 714.113 639.161 713.675 640.339Z" fill="black"/>
<path d="M685.754 604.649C685.848 603.616 685.609 602.581 685.073 601.694C684.537 600.807 683.731 600.114 682.774 599.716C680.508 598.567 678.002 597.968 675.461 597.968C672.92 597.968 670.415 598.567 668.148 599.716C667.313 600.092 666.593 600.683 666.063 601.43C665.533 602.177 665.213 603.051 665.134 603.964V649.21C665.213 650.131 665.538 651.014 666.074 651.767C666.61 652.52 667.338 653.116 668.183 653.492C670.45 654.658 672.963 655.266 675.512 655.266C678.062 655.266 680.575 654.658 682.842 653.492C683.677 653.126 684.398 652.541 684.928 651.8C685.459 651.058 685.779 650.187 685.857 649.279V604.032C685.835 604.24 685.801 604.446 685.754 604.649V604.649Z" fill="#E0E0E0"/>
<path d="M711.786 581.187C692.125 569.438 659.757 569.096 639.515 580.467C619.272 591.839 618.963 610.54 638.487 622.323C658.011 634.106 690.516 634.38 710.758 623.042C731.001 611.705 731.447 593.038 711.786 581.187Z" fill="#EBEBEB"/>
<path d="M708.019 583.31C690.379 572.76 661.333 572.452 643.18 582.659C625.026 592.866 624.615 609.65 642.255 620.336C659.895 631.023 688.94 631.194 707.094 620.987C725.247 610.78 725.659 593.859 708.019 583.31Z" fill="#E0E0E0"/>
<path opacity="0.4" d="M684.832 596.463C681.873 594.95 678.598 594.162 675.276 594.162C671.953 594.162 668.678 594.95 665.719 596.463C660.342 599.477 660.239 604.409 665.445 607.526C668.387 609.07 671.654 609.894 674.977 609.93C678.299 609.965 681.583 609.212 684.558 607.731C689.935 604.375 690.038 599.408 684.832 596.463Z" fill="#B8BCC3"/>
<path d="M693.669 517.683C687.957 520.513 681.657 521.954 675.282 521.888C668.908 521.823 662.639 520.253 656.985 517.307C646.984 511.347 647.224 501.825 657.499 496.07C663.207 493.227 669.506 491.776 675.882 491.836C682.258 491.895 688.53 493.464 694.183 496.413C704.184 502.441 703.945 511.929 693.669 517.683Z" fill="#D4F1F3"/>
<g opacity="0.5">
<path opacity="0.5" d="M693.666 517.683C687.954 520.513 681.654 521.954 675.279 521.888C668.905 521.823 662.636 520.253 656.982 517.307C646.981 511.347 647.221 501.825 657.496 496.07C663.204 493.227 669.503 491.776 675.879 491.836C682.255 491.895 688.527 493.464 694.18 496.413C704.182 502.441 703.942 511.929 693.666 517.683Z" fill="white"/>
</g>
<path d="M683.258 507.579V500.729C683.188 500.03 682.937 499.361 682.528 498.79C682.119 498.219 681.568 497.766 680.928 497.475C679.195 496.588 677.275 496.125 675.328 496.125C673.381 496.125 671.462 496.588 669.728 497.475C669.098 497.764 668.554 498.214 668.152 498.779C667.749 499.344 667.501 500.004 667.433 500.694V507.545L683.258 507.579Z" fill="#E0E0E0"/>
<path d="M684.045 506.346C681.355 507.714 678.38 508.428 675.362 508.428C672.344 508.428 669.369 507.714 666.679 506.346C665.684 505.895 664.827 505.188 664.195 504.298C663.563 503.407 663.179 502.364 663.082 501.277V505.901C663.179 506.993 663.567 508.04 664.205 508.931C664.844 509.823 665.71 510.527 666.713 510.97C669.403 512.338 672.378 513.052 675.396 513.052C678.414 513.052 681.389 512.338 684.079 510.97C684.928 510.541 685.674 509.933 686.265 509.188C686.856 508.443 687.279 507.578 687.504 506.654C687.521 506.426 687.521 506.197 687.504 505.969V501.345C687.415 502.408 687.049 503.43 686.442 504.308C685.835 505.185 685.008 505.888 684.045 506.346V506.346Z" fill="#E0E0E0"/>
<path d="M683.975 496.31C681.292 494.942 678.322 494.228 675.31 494.228C672.297 494.228 669.328 494.942 666.644 496.31C661.849 499.084 661.883 503.571 666.644 506.346C669.334 507.714 672.309 508.428 675.327 508.428C678.345 508.428 681.32 507.714 684.01 506.346C688.805 503.571 688.771 499.084 683.975 496.31ZM680.79 504.462C679.11 505.322 677.249 505.77 675.361 505.77C673.473 505.77 671.613 505.322 669.932 504.462C666.918 502.715 666.918 499.906 669.932 498.194C671.615 497.342 673.475 496.898 675.361 496.898C677.247 496.898 679.107 497.342 680.79 498.194C681.398 498.462 681.915 498.901 682.277 499.457C682.64 500.014 682.833 500.664 682.833 501.328C682.833 501.992 682.64 502.642 682.277 503.198C681.915 503.755 681.398 504.194 680.79 504.462V504.462Z" fill="#FAFAFA"/>
<path d="M594.681 657.294C594.775 656.262 594.536 655.226 594 654.339C593.464 653.452 592.658 652.759 591.701 652.362C589.429 651.212 586.918 650.613 584.371 650.613C581.824 650.613 579.314 651.212 577.041 652.362C576.212 652.742 575.499 653.335 574.976 654.081C574.452 654.828 574.136 655.7 574.061 656.609V656.609V701.856C574.133 702.779 574.455 703.665 574.992 704.419C575.529 705.173 576.261 705.767 577.11 706.137C579.377 707.303 581.89 707.911 584.44 707.911C586.989 707.911 589.502 707.303 591.77 706.137C592.604 705.771 593.325 705.186 593.855 704.445C594.386 703.703 594.707 702.832 594.784 701.924V656.677C594.762 656.885 594.728 657.091 594.681 657.294V657.294Z" fill="#E0E0E0"/>
<path d="M620.712 633.832C601.052 622.083 568.684 621.741 548.441 633.112C528.198 644.484 527.89 663.185 547.413 674.968C566.937 686.751 599.442 687.025 619.685 675.687C639.927 664.35 640.373 645.58 620.712 633.832Z" fill="#EBEBEB"/>
<path d="M616.946 635.955C599.306 625.405 570.261 625.097 552.107 635.304C533.954 645.511 533.543 662.295 551.182 672.981C568.822 683.668 597.868 683.839 616.021 673.632C634.175 663.425 634.586 646.504 616.946 635.955Z" fill="#E0E0E0"/>
<path opacity="0.4" d="M593.758 648.937C590.799 647.424 587.524 646.636 584.201 646.636C580.879 646.636 577.604 647.424 574.645 648.937C569.268 651.951 569.165 656.883 574.371 660C577.313 661.544 580.58 662.368 583.903 662.404C587.225 662.439 590.509 661.686 593.484 660.205C598.861 657.02 598.964 652.053 593.758 648.937Z" fill="#B8BCC3"/>
<path d="M619.035 651.265L610.403 558.785C610.041 556.707 609.191 554.745 607.923 553.06C606.654 551.375 605.004 550.015 603.108 549.092C597.454 546.143 591.183 544.574 584.807 544.515C578.431 544.455 572.131 545.906 566.424 548.749C564.425 549.654 562.672 551.025 561.313 552.747C559.954 554.47 559.028 556.494 558.614 558.648L549.469 650.957C549.469 650.957 549.469 651.231 549.469 651.368V652.464C549.452 652.772 549.452 653.081 549.469 653.389C549.469 653.731 549.469 654.108 549.64 654.451C549.693 654.762 549.761 655.071 549.846 655.376L550.188 656.437L550.565 657.328C550.721 657.695 550.904 658.05 551.113 658.39L551.593 659.246L552.381 660.308L552.997 661.096C553.305 661.472 553.682 661.815 554.025 662.192L554.744 662.911C555.155 663.288 555.635 663.665 556.114 664.041L556.799 664.589C557.578 665.173 558.39 665.71 559.231 666.199C566.819 670.162 575.236 672.274 583.796 672.364C592.356 672.453 600.816 670.517 608.485 666.713C609.307 666.268 610.061 665.788 610.78 665.309H610.986C611.64 664.877 612.269 664.408 612.869 663.904L613.143 663.665C613.692 663.185 614.205 662.671 614.685 662.192L614.959 661.918C615.404 661.404 615.849 660.89 616.226 660.376V660.137C616.605 659.612 616.949 659.063 617.254 658.492V658.321C617.559 657.759 617.822 657.175 618.041 656.574V656.574C618.253 655.996 618.414 655.4 618.521 654.793V654.622C618.612 654.055 618.669 653.483 618.692 652.909V652.635C619.069 652.019 619.069 651.574 619.035 651.265Z" fill="#D4F1F3"/>
<path opacity="0.3" d="M619.035 651.265L610.403 558.785C610.041 556.707 609.191 554.745 607.923 553.06C606.654 551.375 605.004 550.015 603.108 549.092C597.454 546.143 591.183 544.574 584.807 544.515C578.431 544.455 572.131 545.906 566.424 548.749C564.425 549.654 562.672 551.025 561.313 552.747C559.954 554.47 559.028 556.494 558.614 558.648L549.469 650.957C549.469 650.957 549.469 651.231 549.469 651.368V652.464C549.452 652.772 549.452 653.081 549.469 653.389C549.469 653.731 549.469 654.108 549.64 654.451C549.693 654.762 549.761 655.071 549.846 655.376L550.188 656.437L550.565 657.328C550.721 657.695 550.904 658.05 551.113 658.39L551.593 659.246L552.381 660.308L552.997 661.096C553.305 661.472 553.682 661.815 554.025 662.192L554.744 662.911C555.155 663.288 555.635 663.665 556.114 664.041L556.799 664.589C557.578 665.173 558.39 665.71 559.231 666.199C566.819 670.162 575.236 672.274 583.796 672.364C592.356 672.453 600.816 670.517 608.485 666.713C609.307 666.268 610.061 665.788 610.78 665.309H610.986C611.64 664.877 612.269 664.408 612.869 663.904L613.143 663.665C613.692 663.185 614.205 662.671 614.685 662.192L614.959 661.918C615.404 661.404 615.849 660.89 616.226 660.376V660.137C616.605 659.612 616.949 659.063 617.254 658.492V658.321C617.559 657.759 617.822 657.175 618.041 656.574V656.574C618.253 655.996 618.414 655.4 618.521 654.793V654.622C618.612 654.055 618.669 653.483 618.692 652.909V652.635C619.069 652.019 619.069 651.574 619.035 651.265Z" fill="white"/>
<path d="M602.592 570.362C596.879 573.192 590.579 574.633 584.205 574.567C577.83 574.502 571.561 572.932 565.908 569.986C555.906 564.026 556.146 554.504 566.422 548.749C572.129 545.906 578.428 544.455 584.805 544.515C591.181 544.574 597.452 546.143 603.105 549.092C613.175 555.086 612.867 564.574 602.592 570.362Z" fill="#D4F1F3"/>
<g opacity="0.5">
<path opacity="0.5" d="M602.596 570.362C596.884 573.192 590.584 574.633 584.209 574.567C577.835 574.502 571.566 572.932 565.912 569.986C555.911 564.026 556.151 554.504 566.426 548.749C572.134 545.906 578.433 544.455 584.809 544.515C591.185 544.574 597.457 546.143 603.11 549.092C613.18 555.086 612.872 564.574 602.596 570.362Z" fill="white"/>
</g>
<path d="M592.181 560.224V553.374C592.112 552.675 591.861 552.007 591.452 551.435C591.043 550.864 590.491 550.411 589.852 550.12C588.119 549.233 586.199 548.771 584.252 548.771C582.305 548.771 580.385 549.233 578.652 550.12C578.017 550.404 577.47 550.852 577.067 551.418C576.663 551.984 576.418 552.647 576.357 553.34V560.19L592.181 560.224Z" fill="#E0E0E0"/>
<path d="M592.969 558.991C590.279 560.36 587.304 561.073 584.286 561.073C581.268 561.073 578.293 560.36 575.603 558.991C574.608 558.541 573.751 557.834 573.119 556.943C572.487 556.052 572.103 555.01 572.006 553.922V558.546C572.103 559.639 572.491 560.685 573.129 561.577C573.768 562.468 574.634 563.172 575.637 563.615C578.327 564.984 581.302 565.697 584.32 565.697C587.338 565.697 590.313 564.984 593.003 563.615C593.852 563.187 594.598 562.579 595.189 561.834C595.781 561.088 596.203 560.224 596.428 559.3C596.445 559.072 596.445 558.843 596.428 558.615V553.991C596.339 555.054 595.973 556.076 595.366 556.953C594.759 557.831 593.932 558.533 592.969 558.991V558.991Z" fill="#E0E0E0"/>
<path d="M592.899 548.955C590.216 547.587 587.246 546.874 584.234 546.874C581.221 546.874 578.252 547.587 575.568 548.955C570.773 551.73 570.807 556.217 575.568 558.991C578.258 560.36 581.233 561.073 584.251 561.073C587.269 561.073 590.244 560.36 592.934 558.991C597.729 556.217 597.695 551.73 592.899 548.955ZM589.714 557.107C588.033 557.967 586.173 558.415 584.285 558.415C582.397 558.415 580.537 557.967 578.856 557.107C575.842 555.36 575.842 552.552 578.856 550.839C580.539 549.987 582.399 549.544 584.285 549.544C586.171 549.544 588.031 549.987 589.714 550.839C590.322 551.107 590.838 551.546 591.201 552.103C591.564 552.659 591.757 553.309 591.757 553.973C591.757 554.638 591.564 555.287 591.201 555.844C590.838 556.4 590.322 556.839 589.714 557.107Z" fill="#FAFAFA"/>
<path d="M956.791 1204.4C956.791 1204.4 900.036 1149.01 932.335 1056.16C950.455 1004.06 1010.5 965.938 1044.75 962.341C1044.75 962.341 1026.22 983.714 1018.07 1007.35L975.048 1035.95L1014.57 1023.58L1006.15 1057.42C1006.15 1057.42 969.396 1079.65 963.95 1084.52L1003.58 1074.24C1003.58 1074.24 1000.22 1169.98 956.791 1204.4Z" fill="#D4F1F3"/>
<path opacity="0.4" d="M956.791 1204.4C956.791 1204.4 900.036 1149.01 932.335 1056.16C950.455 1004.06 1010.5 965.938 1044.75 962.341C1044.75 962.341 1026.22 983.714 1018.07 1007.35L975.048 1035.95L1014.57 1023.58L1006.15 1057.42C1006.15 1057.42 969.396 1079.65 963.95 1084.52L1003.58 1074.24C1003.58 1074.24 1000.22 1169.98 956.791 1204.4Z" fill="black"/>
<path d="M956.793 1204.4C956.793 1204.4 927.405 1088.46 970.905 1020.81C970.905 1020.81 919.938 1080.51 956.793 1204.4Z" fill="white"/>
<path d="M1021.73 1220.12L952.27 1219.23H951.551L882.122 1220.12C882.122 1220.12 881.369 1305.75 907.708 1340.45C914.97 1349.7 932.027 1356.2 951.928 1356.2C971.828 1356.2 988.92 1349.7 996.181 1340.41C1022.52 1305.48 1021.73 1220.12 1021.73 1220.12Z" fill="#37474F"/>
<path d="M951.962 1257.59C990.496 1257.59 1021.73 1240.82 1021.73 1220.12C1021.73 1199.43 990.496 1182.65 951.962 1182.65C913.429 1182.65 882.191 1199.43 882.191 1220.12C882.191 1240.82 913.429 1257.59 951.962 1257.59Z" fill="#455A64"/>
<path d="M951.962 1210.19C975.939 1210.19 996.284 1217.86 1003.34 1228.55C1005.09 1226.08 1006.06 1223.14 1006.11 1220.12C1006.11 1205.32 981.796 1193.3 951.825 1193.3C921.855 1193.3 897.536 1205.32 897.536 1220.12C897.595 1223.14 898.561 1226.08 900.31 1228.55C907.743 1217.86 927.952 1210.19 951.962 1210.19Z" fill="#263238"/>
<path d="M951.962 1210.19C927.986 1210.19 907.435 1217.86 900.585 1228.55C907.743 1239.2 927.986 1246.91 951.962 1246.91C975.939 1246.91 996.284 1239.2 1003.34 1228.55C996.284 1217.86 975.973 1210.19 951.962 1210.19Z" fill="#E0E0E0"/>
<path d="M952.819 1233.17C952.819 1233.17 925.931 1232.11 902.845 1196.42C893.323 1181.66 888.733 1173.95 888.733 1173.95L926.205 1171.14L884.246 1160.66L864.415 1130.31L899.249 1127.71C899.249 1127.71 873.286 1118.63 854.721 1118.5C854.721 1118.5 822.559 1061.71 813.174 1053.62C837.485 1055.12 861.25 1061.48 883.064 1072.31C904.878 1083.15 924.299 1098.25 940.18 1116.71C993.065 1179.19 960.662 1234.78 952.819 1233.17Z" fill="#D4F1F3"/>
<path d="M952.819 1233.17C952.819 1233.17 969.636 1131.85 862.291 1070.92C862.291 1070.92 973.678 1124.42 952.819 1233.17Z" fill="white"/>
<path d="M952.819 1233.17C952.819 1233.17 977.172 1234.75 1001.35 1204.71C1011.32 1192.31 1016.19 1185.77 1016.19 1185.77L982.653 1179.7L1021.49 1174.19L1042.25 1148.67L1011.05 1143.05C1011.05 1143.05 1035.33 1137.3 1052.15 1138.94C1052.15 1138.94 1086.4 1090.72 1095.75 1084.31C1073.68 1083.37 1051.63 1086.87 1030.93 1094.59C1010.23 1102.32 991.285 1114.11 975.22 1129.29C921.445 1180.7 945.592 1233.86 952.819 1233.17Z" fill="#D4F1F3"/>
<path opacity="0.2" d="M952.819 1233.17C952.819 1233.17 977.172 1234.75 1001.35 1204.71C1011.32 1192.31 1016.19 1185.77 1016.19 1185.77L982.653 1179.7L1021.49 1174.19L1042.25 1148.67L1011.05 1143.05C1011.05 1143.05 1035.33 1137.3 1052.15 1138.94C1052.15 1138.94 1086.4 1090.72 1095.75 1084.31C1073.68 1083.37 1051.63 1086.87 1030.93 1094.59C1010.23 1102.32 991.285 1114.11 975.22 1129.29C921.445 1180.7 945.592 1233.86 952.819 1233.17Z" fill="black"/>
<path d="M952.818 1233.17C952.818 1233.17 947.166 1140.18 1049.75 1095.31C1049.75 1095.31 944.221 1133.09 952.818 1233.17Z" fill="white"/>
</svg>
